# .PCD v0.7 - Point Cloud Data file format
VERSION 0.7
FIELDS x y z intensity normal_x normal_y normal_z curvature
SIZE 4 4 4 4 4 4 4 4
TYPE F F F F F F F F
COUNT 1 1 1 1 1 1 1 1
WIDTH 100
HEIGHT 1
VIEWPOINT 0 0 0 1 0 0 0
POINTS 100
DATA ascii
-2.3298433 1.4401021 -0.5492202 0 0 0 0 0
-2.9912546 1.4502834 -0.73653823 0 0 0 0 0
-2.5838261 1.444665 -0.67342901 0 0 0 0 0
-2.7108696 1.4233968 -0.77058542 0 0 0 0 0
-2.8249526 1.4336656 -0.010287417 0 0 0 0 0
-2.8417063 1.4498672 -0.44462708 0 0 0 0 0
-2.8036344 1.4477751 -0.12970775 0 0 0 0 0
-2.3189211 1.445991 0.076928891 0 0 0 0 0
-2.4007392 1.4708563 -0.59498012 0 0 0 0 0
-2.2844067 1.4405375 -0.55719179 0 0 0 0 0
-2.9467983 1.4413315 -0.44141284 0 0 0 0 0
-2.9086916 1.4807484 0.1180083 0 0 0 0 0
-2.3528037 1.452214 -0.74506408 0 0 0 0 0
-2.6790595 1.4203162 -0.70238435 0 0 0 0 0
-2.796257 1.433673 0.13540028 0 0 0 0 0
-2.6177275 1.4589784 -0.34464937 0 0 0 0 0
-2.8538251 1.434153 -0.58318561 0 0 0 0 0
-2.7617402 1.4241773 0.0088450452 0 0 0 0 0
-2.6498041 1.4391359 0.15781306 0 0 0 0 0
-2.5986311 1.4371803 -0.44628194 0 0 0 0 0
-3.0091195 1.4386861 -0.22295496 0 0 0 0 0
-2.7838476 1.4925838 -0.25822574 0 0 0 0 0
-3.1361458 1.4150789 -0.13170502 0 0 0 0 0
-2.5081234 1.4349458 -0.82795358 0 0 0 0 0
-2.1790054 1.4216714 -0.067522168 0 0 0 0 0
-2.266804 1.4818941 -0.29713032 0 0 0 0 0
-3.0398977 1.459172 0.026792245 0 0 0 0 0
-2.7594671 1.4220123 -0.41663089 0 0 0 0 0
-2.8928611 1.4443752 0.12399542 0 0 0 0 0
-2.3936417 1.4368101 0.12141503 0 0 0 0 0
-2.2035477 1.4082257 -0.43611541 0 0 0 0 0
-2.7830844 1.4366089 -0.58247066 0 0 0 0 0
-2.5353575 1.4272087 -0.57548904 0 0 0 0 0
-2.4501703 1.4307073 -0.26425135 0 0 0 0 0
-2.826031 1.425681 -0.18561542 0 0 0 0 0
-2.6451471 1.4735979 -0.012704916 0 0 0 0 0
-3.0144968 1.4160545 0.12742007 0 0 0 0 0
-2.3328941 1.4585201 -0.52136981 0 0 0 0 0
-2.7653267 1.4721434 -0.0577063 0 0 0 0 0
-2.3963768 1.4151145 -0.074610397 0 0 0 0 0
-2.9672308 1.4500475 -0.59209472 0 0 0 0 0
-2.451386 1.4357239 -0.037537605 0 0 0 0 0
-2.353107 1.4215052 -0.28987253 0 0 0 0 0
-2.6521037 1.4398133 -0.77240431 0 0 0 0 0
-2.8921921 1.4476002 -0.29677817 0 0 0 0 0
-2.6816139 1.4300827 -0.1152491 0 0 0 0 0
-2.6726162 1.4321663 0.11283796 0 0 0 0 0
-3.0003293 1.4738295 -0.55988139 0 0 0 0 0
-2.8403842 1.4302652 -0.1229784 0 0 0 0 0
-2.8581707 1.4573817 -0.34716988 0 0 0 0 0
-2.8018086 1.4477799 -0.62422079 0 0 0 0 0
-3.0247331 1.460099 -0.060973309 0 0 0 0 0
-2.9385874 1.4670951 -0.23542489 0 0 0 0 0
-2.6743028 1.4372333 -0.4266513 0 0 0 0 0
-3.0270905 1.4584962 -0.2904017 0 0 0 0 0
-3.0904062 1.4765511 -0.24097222 0 0 0 0 0
-2.9023385 1.4712498 -0.28154513 0 0 0 0 0
-2.8728149 1.4580497 -0.76407105 0 0 0 0 0
-2.2055397 1.455258 -0.7385577 0 0 0 0 0
-2.3934581 1.4442425 -0.50165862 0 0 0 0 0
-2.4468966 1.4264095 -0.73674178 0 0 0 0 0
-3.1504531 1.3996515 -0.44720995 0 0 0 0 0
-3.0446837 1.4367521 -0.65222561 0 0 0 0 0
-2.303504 1.4505079 -0.57328016 0 0 0 0 0
-2.5836086 1.4237643 -0.497385 0 0 0 0 0
-2.4614079 1.4551634 -0.18789954 0 0 0 0 0
-2.2525926 1.4516045 -0.30916822 0 0 0 0 0
-2.3652873 1.4293749 -0.5075379 0 0 0 0 0
-2.3351157 1.4702679 -0.39057559 0 0 0 0 0
-2.65084 1.4705803 -0.71672565 0 0 0 0 0
-2.8547716 1.4347006 -0.73887098 0 0 0 0 0
-2.1700809 1.4335948 0.14063023 0 0 0 0 0
-2.3580182 1.4355665 -0.018445676 0 0 0 0 0
-2.6671941 1.4252211 0.0796097 0 0 0 0 0
-2.8456056 1.4675958 -0.72591788 0 0 0 0 0
-2.4628301 1.5004156 -0.29125097 0 0 0 0 0
-2.9559979 1.4463001 -0.034112491 0 0 0 0 0
-2.8926294 1.4584666 -0.44835317 0 0 0 0 0
-2.8837769 1.4324225 -0.61353773 0 0 0 0 0
-3.0103009 1.4282229 -0.42686364 0 0 0 0 0
-2.9427259 1.4396152 -0.46312913 0 0 0 0 0
-2.5259604 1.5037578 -0.41729715 0 0 0 0 0
-2.2475383 1.4164313 -0.41132939 0 0 0 0 0
-2.8262546 1.4307096 -0.69265085 0 0 0 0 0
-2.6490746 1.4357777 -0.5795595 0 0 0 0 0
-2.4897013 1.4500884 -0.79742062 0 0 0 0 0
-3.0304561 1.4352962 -0.34268624 0 0 0 0 0
-3.068141 1.4777794 -0.77576035 0 0 0 0 0
-2.5570533 1.4887205 0.045383453 0 0 0 0 0
-2.5754833 1.4535959 -0.69897717 0 0 0 0 0
-2.5593247 1.4733571 0.084789537 0 0 0 0 0
-2.3463082 1.4592187 -0.54439801 0 0 0 0 0
-2.8806438 1.4403167 -0.18983153 0 0 0 0 0
-2.650876 1.4298468 -0.51769078 0 0 0 0 0
-3.1452172 1.4118412 -0.34119779 0 0 0 0 0
-2.7647371 1.443261 -0.7797277 0 0 0 0 0
-2.6060934 1.483469 -0.59402746 0 0 0 0 0
-2.9468124 1.4055586 0.063303038 0 0 0 0 0
-2.8019085 1.4895726 -0.57311583 0 0 0 0 0
-2.6206207 1.4213361 0.080341883 0 0 0 0 0
