# .PCD v0.7 - Point Cloud Data file format
VERSION 0.7
FIELDS x y z intensity normal_x normal_y normal_z curvature
SIZE 4 4 4 4 4 4 4 4
TYPE F F F F F F F F
COUNT 1 1 1 1 1 1 1 1
WIDTH 900
HEIGHT 1
VIEWPOINT 0 0 0 1 0 0 0
POINTS 900
DATA ascii
7.148891 -1.1306394 0.82878268 0 0 0 0 0
7.1164842 -1.1320788 1.085842 0 0 0 0 0
6.8068604 -1.1359197 0.97236812 0 0 0 0 0
7.4392724 -1.1317446 1.0884504 0 0 0 0 0
6.6538515 -1.1277837 1.3235584 0 0 0 0 0
7.1543989 -1.1471261 1.4441336 0 0 0 0 0
6.9560003 -1.1138185 0.62525547 0 0 0 0 0
6.8978891 -1.1353695 1.2323066 0 0 0 0 0
7.1821551 -1.1620069 0.85015881 0 0 0 0 0
7.1383572 -1.1295424 0.81230164 0 0 0 0 0
7.1936932 -1.1519827 1.4911565 0 0 0 0 0
7.193511 -1.1336589 1.5181758 0 0 0 0 0
6.7900591 -1.1066929 0.78018063 0 0 0 0 0
7.100554 -1.1072489 0.61940104 0 0 0 0 0
7.082263 -1.1359848 1.3117629 0 0 0 0 0
6.7433953 -1.1188254 0.89470446 0 0 0 0 0
7.1865625 -1.1324717 1.1137089 0 0 0 0 0
7.0497446 -1.1441963 0.92449272 0 0 0 0 0
6.9364853 -1.1329222 0.68621659 0 0 0 0 0
6.73452 -1.1318008 0.72838253 0 0 0 0 0
7.5783124 -1.1361459 0.9311868 0 0 0 0 0
6.972826 -1.1259174 0.99497944 0 0 0 0 0
7.5270381 -1.1492008 0.95161968 0 0 0 0 0
6.9288616 -1.1303647 1.0275278 0 0 0 0 0
7.4625063 -1.1316327 0.93327284 0 0 0 0 0
6.8906398 -1.1232905 1.6090825 0 0 0 0 0
6.8320169 -1.1221613 1.1076541 0 0 0 0 0
6.7833228 -1.1279722 0.66197515 0 0 0 0 0
7.464251 -1.1505733 1.5425271 0 0 0 0 0
6.969667 -1.1540496 1.6084514 0 0 0 0 0
7.2515917 -1.14464 1.5374119 0 0 0 0 0
7.0024338 -1.1321802 1.5688425 0 0 0 0 0
6.7524643 -1.1214664 0.87210733 0 0 0 0 0
7.3760605 -1.1317227 0.88523656 0 0 0 0 0
7.1536608 -1.1279352 1.3297509 0 0 0 0 0
7.244658 -1.1393082 0.78916627 0 0 0 0 0
7.5797701 -1.1517502 1.1806099 0 0 0 0 0
7.1280599 -1.117058 0.6571492 0 0 0 0 0
6.9826846 -1.1341283 1.3417709 0 0 0 0 0
6.7239861 -1.1236084 1.1200131 0 0 0 0 0
7.0603194 -1.1249559 1.3768793 0 0 0 0 0
7.0208273 -1.1105729 1.0359348 0 0 0 0 0
6.7469873 -1.1340479 1.2485821 0 0 0 0 0
6.6399999 -1.11352 0.79889905 0 0 0 0 0
7.0692244 -1.101656 0.69101858 0 0 0 0 0
7.3888707 -1.1461707 1.4702383 0 0 0 0 0
7.4660735 -1.1464927 1.2832915 0 0 0 0 0
7.4713521 -1.1543708 1.5932202 0 0 0 0 0
6.8088861 -1.1139666 1.451972 0 0 0 0 0
7.3482852 -1.1441841 1.293258 0 0 0 0 0
7.432384 -0.93978626 1.2441691 1 0 0 0 0
6.9220667 -0.96124196 0.79295194 1 0 0 0 0
7.3175206 -0.96217829 0.98854935 1 0 0 0 0
6.7260861 -0.97382069 0.89034247 1 0 0 0 0
7.152411 -0.95736253 1.0531582 1 0 0 0 0
7.2681432 -0.96808684 0.66739559 1 0 0 0 0
7.5331244 -0.96003371 1.5175121 1 0 0 0 0
6.9708319 -0.98807275 1.4330934 1 0 0 0 0
7.3223686 -0.9755705 1.4298544 1 0 0 0 0
6.9499645 -0.96641809 0.91974247 1 0 0 0 0
7.2913518 -0.9566825 1.0889755 1 0 0 0 0
7.2209091 -0.96758777 0.87525934 1 0 0 0 0
7.3078818 -0.97135127 1.5377896 1 0 0 0 0
6.8835297 -0.96344781 1.3447682 1 0 0 0 0
7.2994928 -0.97679681 1.4998989 1 0 0 0 0
6.8417931 -0.98023003 0.70174688 1 0 0 0 0
6.8229938 -0.97158509 0.7118209 1 0 0 0 0
6.9762797 -0.95379519 1.6229326 1 0 0 0 0
7.0762 -0.96956837 1.1190205 1 0 0 0 0
6.6857667 -0.95295811 0.65956974 1 0 0 0 0
6.9779749 -0.98037475 1.600019 1 0 0 0 0
7.405004 -0.93956953 0.94740754 1 0 0 0 0
7.2291136 -0.95751929 1.5324442 1 0 0 0 0
6.95891 -0.99452335 1.1771951 1 0 0 0 0
6.9470053 -0.94956607 0.76304972 1 0 0 0 0
6.8606668 -0.97305381 1.2890912 1 0 0 0 0
7.2346311 -0.97106469 1.0410439 1 0 0 0 0
6.8624821 -0.97283387 1.494256 1 0 0 0 0
7.4306722 -0.95753706 1.50465 1 0 0 0 0
7.2014928 -0.97909957 1.187799 1 0 0 0 0
7.3964572 -0.93598878 1.0259852 1 0 0 0 0
7.2273726 -0.97244793 1.3584719 1 0 0 0 0
7.5575209 -0.94974661 0.79747188 1 0 0 0 0
7.0015569 -0.95448858 1.3660986 1 0 0 0 0
7.4284954 -0.96564072 0.82929915 1 0 0 0 0
7.1248441 -0.94850421 0.62433445 1 0 0 0 0
6.6980338 -0.95915759 1.1881599 1 0 0 0 0
7.1601381 -0.95783108 1.1877143 1 0 0 0 0
7.5672669 -0.97793639 0.76773041 1 0 0 0 0
7.3211679 -0.95057064 0.94882625 1 0 0 0 0
6.9139504 -0.95966828 1.1896131 1 0 0 0 0
7.2545729 -0.96075422 1.5524294 1 0 0 0 0
7.0379062 -0.96745706 1.1876932 1 0 0 0 0
6.8694901 -0.96793574 0.74915075 1 0 0 0 0
7.4936776 -0.96420056 1.1558833 1 0 0 0 0
6.8656764 -0.93691844 1.0973439 1 0 0 0 0
7.5978909 -0.93674242 0.68814522 1 0 0 0 0
7.1591334 -0.95824438 0.92613715 1 0 0 0 0
7.2299356 -0.97229642 1.3593237 1 0 0 0 0
7.0477386 -0.95325637 0.69857144 1 0 0 0 0
6.6561108 -1.1257964 0.93955696 2 0 0 0 0
6.6514583 -1.1100425 1.7044196 2 0 0 0 0
7.2227669 -1.1317765 0.95794123 2 0 0 0 0
6.923377 -1.1435682 1.5926694 2 0 0 0 0
7.144403 -1.1423093 1.0488917 2 0 0 0 0
6.8676095 -1.1416329 1.2121699 2 0 0 0 0
6.8592882 -1.1237917 1.1085058 2 0 0 0 0
6.9830008 -1.1177504 1.46513 2 0 0 0 0
7.0253797 -1.1223989 1.4184291 2 0 0 0 0
6.9246607 -1.1282433 1.7036736 2 0 0 0 0
6.6357584 -1.1422554 1.5874653 2 0 0 0 0
7.3532343 -1.12991 1.5551986 2 0 0 0 0
7.3339257 -1.1500545 0.99966556 2 0 0 0 0
6.7824569 -1.1189902 0.84989685 2 0 0 0 0
7.182148 -1.131259 1.0319161 2 0 0 0 0
6.6302061 -1.1202582 1.4574134 2 0 0 0 0
6.8799939 -1.1277763 0.88016808 2 0 0 0 0
7.1694698 -1.1299043 0.92922425 2 0 0 0 0
7.253253 -1.1538777 1.6157675 2 0 0 0 0
7.3079872 -1.1284456 1.7180978 2 0 0 0 0
7.5586729 -1.1452255 1.0253819 2 0 0 0 0
6.9338655 -1.1394367 1.8407009 2 0 0 0 0
6.750793 -1.1011814 1.4612008 2 0 0 0 0
7.574183 -1.1233784 0.88345015 2 0 0 0 0
7.0336647 -1.1300011 1.302076 2 0 0 0 0
6.7008762 -1.1303766 1.5523591 2 0 0 0 0
6.7565913 -1.1347202 1.5600803 2 0 0 0 0
7.3225889 -1.1223378 1.233699 2 0 0 0 0
7.2255354 -1.1219622 1.0037971 2 0 0 0 0
6.7876959 -1.1281052 1.0684342 2 0 0 0 0
7.185061 -1.1426195 1.3439394 2 0 0 0 0
7.2417421 -1.1269517 1.1844809 2 0 0 0 0
7.1926551 -1.1454176 1.6359079 2 0 0 0 0
6.9319801 -1.1281441 0.98085845 2 0 0 0 0
7.1407857 -1.1237202 1.1383084 2 0 0 0 0
7.1934495 -1.1298097 1.4979 2 0 0 0 0
7.3985238 -1.1378161 1.2142904 2 0 0 0 0
6.7397351 -1.1504867 1.7995839 2 0 0 0 0
6.7529035 -1.1415192 1.5735546 2 0 0 0 0
6.69559 -1.1303859 1.13011 2 0 0 0 0
6.9535613 -1.1092416 1.3831692 2 0 0 0 0
6.7250619 -1.1290029 0.95163202 2 0 0 0 0
7.1380496 -1.1402049 1.2711705 2 0 0 0 0
7.4079509 -1.1400582 1.4055604 2 0 0 0 0
6.9900298 -1.1273854 1.4532359 2 0 0 0 0
7.2152963 -1.1358382 1.4422642 2 0 0 0 0
7.0884442 -1.1328275 1.5381007 2 0 0 0 0
7.2255268 -1.1487885 1.3403051 2 0 0 0 0
7.1121345 -1.1178443 1.5333178 2 0 0 0 0
7.0723205 -1.1320916 1.0529366 2 0 0 0 0
7.1144152 -0.88257736 0.79296833 3 0 0 0 0
6.8693452 -0.91871005 1.4082314 3 0 0 0 0
6.901834 -0.92545474 0.92183173 3 0 0 0 0
7.0597439 -0.93947738 1.681361 3 0 0 0 0
6.8917856 -0.90285426 0.7628538 3 0 0 0 0
7.5868788 -0.90560585 1.6479459 3 0 0 0 0
7.4241819 -0.88003039 1.0269456 3 0 0 0 0
7.086729 -0.9199177 1.0249544 3 0 0 0 0
7.7306528 -0.88447934 0.83894598 3 0 0 0 0
7.717011 -0.89473653 1.0060639 3 0 0 0 0
7.0073032 -0.91927761 1.4253026 3 0 0 0 0
7.7125754 -0.89511192 1.4191303 3 0 0 0 0
7.5791645 -0.92196733 1.4952896 3 0 0 0 0
7.4009323 -0.91894114 1.0122081 3 0 0 0 0
7.6907363 -0.9051975 1.474748 3 0 0 0 0
6.9382944 -0.90117413 0.78734028 3 0 0 0 0
6.9683862 -0.9189468 1.2243816 3 0 0 0 0
7.0818944 -0.92639595 1.6814964 3 0 0 0 0
6.8593678 -0.92634612 1.3144655 3 0 0 0 0
7.7224593 -0.89200944 1.3696451 3 0 0 0 0
6.8685489 -0.91334486 1.1259928 3 0 0 0 0
7.0150065 -0.91390407 1.6519738 3 0 0 0 0
7.2371078 -0.9090035 1.7455177 3 0 0 0 0
7.4728689 -0.89683568 0.91833937 3 0 0 0 0
7.4516616 -0.89796418 1.2951592 3 0 0 0 0
7.3139768 -0.92223638 1.5603254 3 0 0 0 0
7.6479425 -0.89456284 1.2563776 3 0 0 0 0
6.9089379 -0.90233725 0.81531495 3 0 0 0 0
6.8928704 -0.92895585 1.178367 3 0 0 0 0
7.5938859 -0.89130318 1.4266902 3 0 0 0 0
6.8960338 -0.9198451 1.1439279 3 0 0 0 0
7.5512218 -0.87463069 0.8705619 3 0 0 0 0
7.8105111 -0.88708121 1.3407314 3 0 0 0 0
7.6719775 -0.89271873 1.5477693 3 0 0 0 0
7.6143808 -0.87408 1.0177372 3 0 0 0 0
7.6123567 -0.88060522 0.80794781 3 0 0 0 0
6.9666462 -0.91375321 1.1831173 3 0 0 0 0
7.641819 -0.90527523 1.5323753 3 0 0 0 0
7.170568 -0.92591476 1.6829599 3 0 0 0 0
7.5043478 -0.90487939 0.79213983 3 0 0 0 0
7.1598516 -0.92956263 1.7231064 3 0 0 0 0
7.3293533 -0.904688 1.2742563 3 0 0 0 0
7.5042114 -0.90677798 1.6017764 3 0 0 0 0
7.7149296 -0.88679546 1.6843684 3 0 0 0 0
7.8033485 -0.89605606 1.1949914 3 0 0 0 0
7.2346668 -0.90891767 1.2032654 3 0 0 0 0
6.8746347 -0.91008848 0.87394822 3 0 0 0 0
6.8468947 -0.9028554 1.0372097 3 0 0 0 0
7.0631466 -0.89706528 1.2515388 3 0 0 0 0
7.2403002 -0.90620601 1.3027174 3 0 0 0 0
6.84902 -0.97815573 1.0673615 4 0 0 0 0
6.9054413 -0.96745253 1.1611147 4 0 0 0 0
6.840416 -0.98682731 1.6472484 4 0 0 0 0
7.5768185 -0.95402813 1.615092 4 0 0 0 0
6.9846983 -0.9626981 0.95229179 4 0 0 0 0
6.7561822 -0.97395051 1.2382739 4 0 0 0 0
7.1317158 -0.94982111 0.9128862 4 0 0 0 0
7.3449073 -0.95775557 1.5593605 4 0 0 0 0
6.8237185 -0.97549313 1.6717538 4 0 0 0 0
7.6627898 -0.9589932 1.7075353 4 0 0 0 0
6.7792697 -0.98528504 1.1998725 4 0 0 0 0
7.4358063 -0.94826877 1.4089417 4 0 0 0 0
7.6788349 -0.95766073 0.9186886 4 0 0 0 0
7.0433688 -0.96390873 1.4281831 4 0 0 0 0
7.561182 -0.96024752 1.0562489 4 0 0 0 0
7.059258 -0.9534772 0.96503186 4 0 0 0 0
7.5111861 -0.93048859 1.4791428 4 0 0 0 0
7.2654042 -0.95387495 1.7123479 4 0 0 0 0
7.4404693 -0.94366604 1.240667 4 0 0 0 0
6.9484444 -0.97122115 1.0497537 4 0 0 0 0
7.0210147 -0.97769189 1.5407044 4 0 0 0 0
6.7895799 -0.98902148 1.5932815 4 0 0 0 0
7.5087032 -0.96019387 1.514141 4 0 0 0 0
7.3637171 -0.93243247 1.2570064 4 0 0 0 0
7.6319346 -0.94485319 1.3268024 4 0 0 0 0
7.4405642 -0.95923692 1.039844 4 0 0 0 0
7.6554136 -0.95671159 1.4885694 4 0 0 0 0
7.144206 -0.94541538 1.0246377 4 0 0 0 0
7.3062005 -0.95657033 1.5286115 4 0 0 0 0
7.5173297 -0.95022243 1.5625184 4 0 0 0 0
6.7255998 -0.9744882 0.94922906 4 0 0 0 0
7.2498136 -0.97558516 1.6080656 4 0 0 0 0
7.6312232 -0.95101452 1.2817394 4 0 0 0 0
7.2800121 -0.97435677 0.98331827 4 0 0 0 0
7.2928667 -0.94518828 0.93381172 4 0 0 0 0
7.3291292 -0.96152502 0.93129128 4 0 0 0 0
7.4943638 -0.95511448 1.6832619 4 0 0 0 0
7.5459595 -0.94469714 0.92568731 4 0 0 0 0
7.3291245 -0.96975732 1.1988668 4 0 0 0 0
7.6195803 -0.94432533 0.98845476 4 0 0 0 0
7.1777773 -0.9643234 1.048745 4 0 0 0 0
7.5870752 -0.94930881 1.1828946 4 0 0 0 0
6.9356036 -0.96710616 1.2294676 4 0 0 0 0
6.8213348 -0.97312862 1.3204343 4 0 0 0 0
7.2762966 -0.96791071 1.4271181 4 0 0 0 0
7.3842297 -0.96901882 1.7419357 4 0 0 0 0
7.4912 -0.94284606 1.2141621 4 0 0 0 0
7.4441981 -0.94968861 1.1214635 4 0 0 0 0
7.2799573 -0.94643795 0.92452884 4 0 0 0 0
7.0593796 -0.97481793 1.0303406 4 0 0 0 0
7.1115017 -1.3462553 1.9710557 5 0 0 0 0
7.2942529 -1.3606873 2.1004758 5 0 0 0 0
7.0731878 -1.3595784 1.4567341 5 0 0 0 0
6.7628851 -1.3432519 1.239693 5 0 0 0 0
6.6443563 -1.3289825 1.4515123 5 0 0 0 0
7.1034741 -1.3336574 1.6999543 5 0 0 0 0
6.820683 -1.3427255 1.8803682 5 0 0 0 0
7.2530236 -1.3469512 2.1567371 5 0 0 0 0
7.0067134 -1.3385093 1.5420003 5 0 0 0 0
6.9178925 -1.33461 1.5908154 5 0 0 0 0
6.7417326 -1.3409427 1.4812893 5 0 0 0 0
6.8814635 -1.3382288 1.4342353 5 0 0 0 0
6.558445 -1.3200204 1.891821 5 0 0 0 0
7.0206051 -1.3512199 1.6567897 5 0 0 0 0
7.4414172 -1.3631483 1.3973454 5 0 0 0 0
7.3345318 -1.3586421 1.4048064 5 0 0 0 0
7.1711121 -1.3404301 1.3014952 5 0 0 0 0
6.665215 -1.3422637 1.6121423 5 0 0 0 0
7.4771042 -1.3764882 1.7374367 5 0 0 0 0
6.5737047 -1.337091 1.4571691 5 0 0 0 0
6.6166086 -1.3389148 1.7774453 5 0 0 0 0
7.2093287 -1.3414592 2.0143604 5 0 0 0 0
7.496304 -1.3421025 2.0645809 5 0 0 0 0
6.593751 -1.3296015 1.6760963 5 0 0 0 0
7.0443797 -1.3591114 1.6102514 5 0 0 0 0
6.6511168 -1.3142877 1.9283556 5 0 0 0 0
7.5325065 -1.372403 1.9358194 5 0 0 0 0
6.6195374 -1.3175037 1.6223332 5 0 0 0 0
7.2297029 -1.3652475 1.3434267 5 0 0 0 0
6.884727 -1.335523 1.8645447 5 0 0 0 0
7.5223484 -1.3615543 1.6028144 5 0 0 0 0
7.2204576 -1.3592247 1.927429 5 0 0 0 0
7.1839166 -1.3464394 2.1337154 5 0 0 0 0
7.1460438 -1.3273026 1.9488651 5 0 0 0 0
6.5889621 -1.3218755 2.0738592 5 0 0 0 0
7.195405 -1.3495283 2.133004 5 0 0 0 0
7.2817445 -1.3675144 2.2369626 5 0 0 0 0
7.0011373 -1.3406813 1.4693425 5 0 0 0 0
6.6584935 -1.3387631 1.2718568 5 0 0 0 0
7.0821662 -1.3429211 1.8963904 5 0 0 0 0
6.9242234 -1.3258182 2.1531448 5 0 0 0 0
6.584547 -1.323289 2.1881983 5 0 0 0 0
6.6454272 -1.3312129 1.9816078 5 0 0 0 0
7.26754 -1.336815 2.2310224 5 0 0 0 0
6.776094 -1.3382329 2.0533226 5 0 0 0 0
7.3257279 -1.3760741 1.3637388 5 0 0 0 0
6.8666487 -1.3440596 1.7360455 5 0 0 0 0
7.1410146 -1.3427621 1.5134479 5 0 0 0 0
7.2096395 -1.3318784 1.8586459 5 0 0 0 0
6.7517524 -1.3458681 1.6197311 5 0 0 0 0
-4.8940434 8.8054676 -4.2108917 0 0 0 0 1
-4.9008298 8.4350586 -4.2982416 0 0 0 0 1
-4.8800473 8.8728905 -3.8318872 0 0 0 0 1
-4.9281497 8.3223829 -4.2588358 0 0 0 0 1
-4.9074278 8.9547281 -4.3366308 0 0 0 0 1
-4.8786917 8.5057812 -3.5845776 0 0 0 0 1
-4.8959947 8.2829618 -3.8669002 0 0 0 0 1
-4.886766 8.2100477 -4.0320125 0 0 0 0 1
-4.9152346 8.430769 -4.3082528 0 0 0 0 1
-4.8866224 8.3165255 -4.0756445 0 0 0 0 1
-4.914845 8.2416401 -4.1134167 0 0 0 0 1
-4.893713 8.9552774 -4.217411 0 0 0 0 1
-4.9012852 8.2748623 -4.2070837 0 0 0 0 1
-4.9232621 8.1868658 -4.3235989 0 0 0 0 1
-4.8912091 8.606246 -3.655807 0 0 0 0 1
-4.8931818 8.3509521 -3.6149747 0 0 0 0 1
-4.9078021 8.6868401 -4.3537254 0 0 0 0 1
-4.9091949 8.0573645 -3.9937322 0 0 0 0 1
-4.8916054 7.9930959 -3.7941279 0 0 0 0 1
-4.9260049 8.0649691 -4.2026048 0 0 0 0 1
-4.9118848 8.9032183 -4.363812 0 0 0 0 1
-4.8848457 8.8891582 -4.0077543 0 0 0 0 1
-4.9078507 8.4561872 -4.0781012 0 0 0 0 1
-4.8926358 8.7709522 -4.0585108 0 0 0 0 1
-4.8735662 8.9137964 -3.5932372 0 0 0 0 1
-4.8878469 8.5668411 -4.3212099 0 0 0 0 1
-4.8959365 8.3752089 -3.8227901 0 0 0 0 1
-4.8864245 8.4453001 -3.7790179 0 0 0 0 1
-4.9261656 8.0349674 -4.4812689 0 0 0 0 1
-4.8969336 8.6989164 -3.746634 0 0 0 0 1
-4.912622 8.5193949 -4.5517135 0 0 0 0 1
-4.9260683 8.4432917 -4.0190434 0 0 0 0 1
-4.8913765 8.4629793 -4.3574295 0 0 0 0 1
-4.9085932 8.7003775 -4.5700955 0 0 0 0 1
-4.879159 8.7563963 -4.1446338 0 0 0 0 1
-4.9195447 8.2032518 -4.5822539 0 0 0 0 1
-4.897037 8.4680424 -3.8663938 0 0 0 0 1
-4.8843207 8.4388885 -4.0325313 0 0 0 0 1
-4.8852606 8.6235189 -3.7353506 0 0 0 0 1
-4.8834314 8.7959576 -3.5963047 0 0 0 0 1
-4.9027457 8.8546009 -3.704349 0 0 0 0 1
-4.8825097 8.7008505 -3.7207062 0 0 0 0 1
-4.879519 8.2079563 -3.9351816 0 0 0 0 1
-4.8890834 8.9050579 -4.4548254 0 0 0 0 1
-4.8993244 8.8809357 -3.8631175 0 0 0 0 1
-4.8854289 8.6706285 -3.5908804 0 0 0 0 1
-4.9160018 8.5579319 -4.5430551 0 0 0 0 1
-4.8953171 8.8092165 -4.1985826 0 0 0 0 1
-4.8782101 8.8539419 -3.7262809 0 0 0 0 1
-4.9064088 8.6671696 -4.3606877 0 0 0 0 1
-5.1514297 8.0159903 -3.841145 1 0 0 0 1
-5.1657691 8.2783823 -4.3639841 1 0 0 0 1
-5.1276698 8.2719803 -4.1096654 1 0 0 0 1
-5.1613483 8.5928507 -3.6642404 1 0 0 0 1
-5.1567569 7.8154354 -4.1728539 1 0 0 0 1
-5.1453214 8.4939222 -3.8123195 1 0 0 0 1
-5.1385484 7.9851217 -3.7864535 1 0 0 0 1
-5.1504359 8.1390486 -4.4303627 1 0 0 0 1
-5.1407399 8.5467024 -4.0566282 1 0 0 0 1
-5.1717954 8.1552887 -3.7445197 1 0 0 0 1
-5.1515565 8.1689472 -3.8706086 1 0 0 0 1
-5.1362948 7.8369207 -4.1029978 1 0 0 0 1
-5.140399 8.4955254 -3.7998524 1 0 0 0 1
-5.1536765 8.6158476 -3.9755771 1 0 0 0 1
-5.1697111 8.0952263 -4.5780349 1 0 0 0 1
-5.1574988 8.5323925 -4.5212355 1 0 0 0 1
-5.1434941 8.6554985 -3.7947867 1 0 0 0 1
-5.1630964 7.7885613 -4.4357014 1 0 0 0 1
-5.1828856 8.5322924 -4.4916468 1 0 0 0 1
-5.1585188 7.9454737 -4.4425602 1 0 0 0 1
-5.1800647 8.599822 -4.3425879 1 0 0 0 1
-5.125947 8.1467962 -3.6492033 1 0 0 0 1
-5.146646 8.7280693 -4.3119307 1 0 0 0 1
-5.1428657 8.1459408 -4.1591444 1 0 0 0 1
-5.1463656 7.9982209 -4.166852 1 0 0 0 1
-5.1614366 8.5543928 -4.2060905 1 0 0 0 1
-5.1429362 8.1094599 -4.3635783 1 0 0 0 1
-5.1646438 8.3773861 -4.5630159 1 0 0 0 1
-5.1256003 8.173521 -3.6172543 1 0 0 0 1
-5.1742597 8.7617245 -4.5883017 1 0 0 0 1
-5.1451459 8.0098953 -3.9330144 1 0 0 0 1
-5.1464043 8.1378603 -3.7627077 1 0 0 0 1
-5.1391673 7.7832794 -4.4378891 1 0 0 0 1
-5.1559629 8.0693159 -4.1345949 1 0 0 0 1
-5.1689301 8.6265097 -4.1467962 1 0 0 0 1
-5.125598 7.9952488 -4.0343547 1 0 0 0 1
-5.1444788 8.6052999 -3.8749931 1 0 0 0 1
-5.1596818 7.7826571 -4.1677375 1 0 0 0 1
-5.175221 8.377038 -4.5739732 1 0 0 0 1
-5.1636834 8.6288795 -4.3747816 1 0 0 0 1
-5.1542425 8.0934877 -4.4498606 1 0 0 0 1
-5.1790628 7.8241081 -4.2535486 1 0 0 0 1
-5.1376472 8.2749205 -4.2851562 1 0 0 0 1
-5.1220307 8.1520491 -3.6286571 1 0 0 0 1
-5.1577754 7.8765249 -4.268909 1 0 0 0 1
-5.1474481 8.0905247 -4.538486 1 0 0 0 1
-5.1491919 8.1724138 -3.6154852 1 0 0 0 1
-5.1506739 8.7190027 -4.1945848 1 0 0 0 1
-5.123395 8.2490625 -3.9483931 1 0 0 0 1
-5.1576252 8.688096 -4.1575823 1 0 0 0 1
-4.8321486 7.9397197 -4.4393382 2 0 0 0 1
-4.8222842 8.6758366 -4.2711582 2 0 0 0 1
-4.8187318 8.6918259 -3.8070817 2 0 0 0 1
-4.8130531 8.4565945 -3.8996975 2 0 0 0 1
-4.8249803 8.3927679 -3.9715874 2 0 0 0 1
-4.8346615 8.4306231 -4.631278 2 0 0 0 1
-4.8033223 8.6289024 -3.7952218 2 0 0 0 1
-4.814456 7.8922982 -4.6556501 2 0 0 0 1
-4.804913 8.50208 -3.9657438 2 0 0 0 1
-4.8119268 8.8510971 -4.5923524 2 0 0 0 1
-4.8208232 8.2527161 -4.2233062 2 0 0 0 1
-4.8215394 8.3285141 -4.6790819 2 0 0 0 1
-4.8171468 8.1569757 -4.1096468 2 0 0 0 1
-4.8190231 8.5199785 -4.0108008 2 0 0 0 1
-4.8342767 8.0823689 -4.3554931 2 0 0 0 1
-4.8243079 8.0394793 -4.6352892 2 0 0 0 1
-4.8126974 8.1311617 -3.9239352 2 0 0 0 1
-4.7986679 8.1444006 -4.6595993 2 0 0 0 1
-4.8173437 7.9081578 -4.2410488 2 0 0 0 1
-4.8204994 8.0981789 -4.0923114 2 0 0 0 1
-4.8055182 8.378953 -3.9247198 2 0 0 0 1
-4.829339 8.4328938 -4.3229656 2 0 0 0 1
-4.8067994 8.4502373 -4.5970068 2 0 0 0 1
-4.8235941 8.42729 -4.3489017 2 0 0 0 1
-4.8110023 8.3248396 -4.265955 2 0 0 0 1
-4.8105607 8.6743555 -4.1232295 2 0 0 0 1
-4.8408289 7.8648877 -4.6110311 2 0 0 0 1
-4.8046227 8.2203913 -4.1770368 2 0 0 0 1
-4.8233395 8.3681927 -4.5252852 2 0 0 0 1
-4.8254867 8.5408554 -4.0030937 2 0 0 0 1
-4.8185167 8.1314373 -4.5217509 2 0 0 0 1
-4.8016853 8.2563467 -3.822681 2 0 0 0 1
-4.8205361 8.3694859 -4.4504395 2 0 0 0 1
-4.8212771 7.9527102 -4.3565574 2 0 0 0 1
-4.8222899 8.6250134 -4.0364661 2 0 0 0 1
-4.8188863 8.0941534 -4.4956732 2 0 0 0 1
-4.8197012 8.3679161 -4.1678162 2 0 0 0 1
-4.8374338 8.4325762 -4.7650781 2 0 0 0 1
-4.8214293 8.5205879 -4.7283916 2 0 0 0 1
-4.810689 8.7821712 -4.4814348 2 0 0 0 1
-4.811059 8.0388079 -4.3239074 2 0 0 0 1
-4.8213267 7.8581557 -4.373395 2 0 0 0 1
-4.8079524 8.1690302 -3.8473165 2 0 0 0 1
-4.8253851 7.9552646 -4.1194715 2 0 0 0 1
-4.8215871 8.3264446 -3.9664063 2 0 0 0 1
-4.8215094 8.0515585 -4.7217941 2 0 0 0 1
-4.809628 8.6494102 -4.1149626 2 0 0 0 1
-4.8258872 8.0149536 -4.6594729 2 0 0 0 1
-4.815774 8.5891542 -4.7085648 2 0 0 0 1
-4.8295407 8.7879629 -4.3408732 2 0 0 0 1
-5.0271788 8.6140537 -3.6592374 3 0 0 0 1
-4.9986596 7.9399056 -4.1391044 3 0 0 0 1
-5.0393634 8.4792604 -4.5015111 3 0 0 0 1
-5.039885 8.3950548 -4.1166358 3 0 0 0 1
-5.0010715 7.7651496 -3.7512789 3 0 0 0 1
-5.03579 8.4443607 -3.6290209 3 0 0 0 1
-5.0052166 7.810688 -4.4253778 3 0 0 0 1
-5.0292826 8.352562 -4.3036017 3 0 0 0 1
-5.0223031 7.9335508 -3.9180219 3 0 0 0 1
-5.0320106 8.6795149 -4.5009089 3 0 0 0 1
-5.0334849 8.6686144 -4.1460915 3 0 0 0 1
-5.0226507 7.7685061 -4.208034 3 0 0 0 1
-4.9965329 7.6829371 -4.2245073 3 0 0 0 1
-5.0166149 8.4791012 -4.4585781 3 0 0 0 1
-5.0019183 7.7406068 -3.8698394 3 0 0 0 1
-5.0040398 7.9458952 -3.9665215 3 0 0 0 1
-5.0307188 8.4467268 -4.239634 3 0 0 0 1
-5.0046387 7.7995162 -4.3325605 3 0 0 0 1
-5.0257659 8.4728575 -4.3048735 3 0 0 0 1
-5.0231361 8.5230722 -3.9629099 3 0 0 0 1
-5.0465388 8.6411734 -4.4898505 3 0 0 0 1
-5.0029693 8.1637926 -3.6740134 3 0 0 0 1
-5.0098724 7.9283624 -3.8229251 3 0 0 0 1
-5.0376115 7.8572831 -4.4489889 3 0 0 0 1
-5.0260811 8.3133926 -4.2757087 3 0 0 0 1
-5.0204492 7.8864856 -4.3401809 3 0 0 0 1
-5.0194249 8.5306845 -3.8720896 3 0 0 0 1
-5.03338 8.6385288 -3.7922308 3 0 0 0 1
-5.0062428 7.83532 -4.1516042 3 0 0 0 1
-5.0321269 8.526762 -3.7242541 3 0 0 0 1
-5.0146828 8.0960474 -4.3913164 3 0 0 0 1
-5.0318103 8.6054821 -4.1519694 3 0 0 0 1
-5.0257044 8.558897 -4.5923257 3 0 0 0 1
-5.0126305 7.9735188 -3.9610469 3 0 0 0 1
-5.0073004 7.9483705 -4.2989817 3 0 0 0 1
-5.0087976 8.0566931 -3.8520191 3 0 0 0 1
-5.0236616 8.2307787 -3.7979748 3 0 0 0 1
-5.027945 8.2512903 -4.5346537 3 0 0 0 1
-5.0321517 8.5464983 -4.5394192 3 0 0 0 1
-5.004971 8.3170166 -4.3408217 3 0 0 0 1
-5.0432138 8.4709053 -4.2055321 3 0 0 0 1
-5.0092525 8.4144917 -3.7256429 3 0 0 0 1
-5.0250397 8.202282 -4.1947694 3 0 0 0 1
-5.0527983 8.5590487 -3.7435477 3 0 0 0 1
-5.0137091 8.174366 -4.0371346 3 0 0 0 1
-5.006424 7.8151441 -3.9639091 3 0 0 0 1
-4.9952278 8.0837049 -3.7778916 3 0 0 0 1
-5.0150013 7.8860946 -4.1002989 3 0 0 0 1
-5.024725 8.6555071 -4.3640056 3 0 0 0 1
-5.0209198 7.9985719 -4.3694353 3 0 0 0 1
-5.0663676 8.2723522 -4.3563991 4 0 0 0 1
-5.0572319 7.8249307 -4.0585217 4 0 0 0 1
-5.0681295 8.3867645 -3.8047121 4 0 0 0 1
-5.0481849 8.3342724 -4.1664624 4 0 0 0 1
-5.0348067 7.6451316 -4.2191153 4 0 0 0 1
-5.0623307 8.1775036 -4.7375598 4 0 0 0 1
-5.0535688 8.1109009 -4.4364705 4 0 0 0 1
-5.0837975 8.1309052 -3.8414876 4 0 0 0 1
-5.0867276 8.5124302 -4.2104158 4 0 0 0 1
-5.056457 8.3585024 -3.8667629 4 0 0 0 1
-5.057261 7.7746177 -3.9126613 4 0 0 0 1
-5.0627499 7.7903957 -4.0211582 4 0 0 0 1
-5.065454 8.0809116 -4.1988511 4 0 0 0 1
-5.0516229 8.2297211 -4.7572918 4 0 0 0 1
-5.0603824 7.817317 -4.5545382 4 0 0 0 1
-5.0714512 8.2667618 -4.6366973 4 0 0 0 1
-5.0688486 7.8866792 -4.0623584 4 0 0 0 1
-5.0592093 8.3384581 -4.1419439 4 0 0 0 1
-5.0343666 7.6945453 -4.6503959 4 0 0 0 1
-5.0580235 7.8696566 -4.3106437 4 0 0 0 1
-5.0573893 8.4298496 -4.0813699 4 0 0 0 1
-5.0648079 8.469759 -4.3109488 4 0 0 0 1
-5.0566392 8.336072 -4.4058576 4 0 0 0 1
-5.0388432 7.6626811 -4.2119217 4 0 0 0 1
-5.073822 8.3873739 -4.2576613 4 0 0 0 1
-5.0388136 7.922482 -3.7889977 4 0 0 0 1
-5.0507979 7.7591558 -4.0821328 4 0 0 0 1
-5.0745482 8.3216791 -4.0206175 4 0 0 0 1
-5.078114 7.829915 -4.0076747 4 0 0 0 1
-5.0647116 7.8055596 -4.6664209 4 0 0 0 1
-5.0446091 7.5605297 -4.1394019 4 0 0 0 1
-5.0655017 8.3935452 -4.415236 4 0 0 0 1
-5.0643597 7.8848386 -3.9969637 4 0 0 0 1
-5.0633154 8.3135338 -4.1359596 4 0 0 0 1
-5.0584254 7.9857225 -4.5969982 4 0 0 0 1
-5.065793 8.433115 -3.790633 4 0 0 0 1
-5.0930362 8.4310789 -3.8116045 4 0 0 0 1
-5.0457482 8.1437063 -4.4446397 4 0 0 0 1
-5.0691195 8.1998615 -4.2937593 4 0 0 0 1
-5.0607505 8.2678442 -3.826803 4 0 0 0 1
-5.055171 7.9210801 -4.3522167 4 0 0 0 1
-5.063024 8.0997667 -3.8208976 4 0 0 0 1
-5.0641055 7.8994961 -4.2636724 4 0 0 0 1
-5.0677614 8.5030375 -4.5488868 4 0 0 0 1
-5.0571256 8.0490952 -4.6494584 4 0 0 0 1
-5.055131 7.8668866 -4.4531131 4 0 0 0 1
-5.0650868 8.362855 -4.7141485 4 0 0 0 1
-5.0480175 7.6516962 -4.5318546 4 0 0 0 1
-5.0684614 8.3024845 -3.9280684 4 0 0 0 1
-5.0528226 7.8142266 -4.0038652 4 0 0 0 1
-4.4172163 8.3311262 -4.4767957 5 0 0 0 1
-4.4035563 8.6217623 -4.2218757 5 0 0 0 1
-4.3927312 8.5835171 -4.1964612 5 0 0 0 1
-4.3975768 7.811986 -5.0627875 5 0 0 0 1
-4.3637376 8.1424465 -4.9719801 5 0 0 0 1
-4.3867726 8.6036453 -4.8546424 5 0 0 0 1
-4.4195018 8.1298351 -4.4936619 5 0 0 0 1
-4.3644214 8.6112556 -5.0370193 5 0 0 0 1
-4.3777847 8.719636 -4.5686378 5 0 0 0 1
-4.3978462 8.7528286 -4.5532169 5 0 0 0 1
-4.3620667 8.7362595 -4.6480303 5 0 0 0 1
-4.3921208 8.1155624 -5.1110921 5 0 0 0 1
-4.4096026 8.3279533 -4.2419333 5 0 0 0 1
-4.3698883 8.4966497 -4.7987375 5 0 0 0 1
-4.4283252 7.7782087 -4.2338881 5 0 0 0 1
-4.4076648 7.9370174 -4.9642677 5 0 0 0 1
-4.3923626 8.6110792 -4.1609902 5 0 0 0 1
-4.4036407 8.0742798 -4.2198229 5 0 0 0 1
-4.3751507 7.8794403 -4.9970694 5 0 0 0 1
-4.4061856 8.2940817 -4.3918376 5 0 0 0 1
-4.3909674 7.974453 -5.0688453 5 0 0 0 1
-4.3938317 7.8115349 -5.0983725 5 0 0 0 1
-4.4216676 8.0344353 -4.3490744 5 0 0 0 1
-4.4212208 8.0434799 -4.4131351 5 0 0 0 1
-4.4082932 8.0173054 -4.7138777 5 0 0 0 1
-4.3964839 7.9540296 -4.8273897 5 0 0 0 1
-4.3499155 8.7521009 -5.1046534 5 0 0 0 1
-4.3907566 8.5320654 -4.4847598 5 0 0 0 1
-4.4034495 7.9261494 -4.6230989 5 0 0 0 1
-4.3977628 7.8441467 -4.7202969 5 0 0 0 1
-4.3613558 8.5289249 -4.636209 5 0 0 0 1
-4.3614855 8.7021799 -4.7504258 5 0 0 0 1
-4.4100857 8.2029562 -4.5111513 5 0 0 0 1
-4.4017353 7.7616377 -5.0440536 5 0 0 0 1
-4.4170532 7.7807217 -4.6241441 5 0 0 0 1
-4.364841 8.6848278 -4.9474607 5 0 0 0 1
-4.4161363 8.538867 -4.5229139 5 0 0 0 1
-4.4251227 7.7724919 -4.282886 5 0 0 0 1
-4.3993936 7.8794837 -5.0411782 5 0 0 0 1
-4.3824306 8.228529 -5.0778098 5 0 0 0 1
-4.4048395 7.8491497 -4.4068189 5 0 0 0 1
-4.3918843 8.4219875 -4.9326196 5 0 0 0 1
-4.3575358 8.3244572 -5.0361509 5 0 0 0 1
-4.3790216 8.4350185 -4.8359241 5 0 0 0 1
-4.3581266 8.5780382 -4.8711715 5 0 0 0 1
-4.3986053 7.8179188 -4.9848065 5 0 0 0 1
-4.4006667 8.5220337 -4.3576455 5 0 0 0 1
-4.4129772 7.8949618 -4.7987804 5 0 0 0 1
-4.4177589 8.5899382 -4.2808108 5 0 0 0 1
-4.4203382 7.8174911 -4.7880917 5 0 0 0 1
7.0613809 6.1140246 -5.1715913 0 0 0 0 2
7.3861408 6.2426353 -5.1866388 0 0 0 0 2
7.7522397 5.9259295 -5.209239 0 0 0 0 2
6.8585563 6.1637716 -5.1730409 0 0 0 0 2
7.0471482 5.8292308 -5.1755056 0 0 0 0 2
7.1749477 6.4209981 -5.1843162 0 0 0 0 2
7.3165154 5.7750697 -5.1960077 0 0 0 0 2
7.2636781 5.6738796 -5.1960359 0 0 0 0 2
7.1524572 5.6065001 -5.1933732 0 0 0 0 2
7.3116364 5.9146385 -5.1979842 0 0 0 0 2
6.9571586 5.9645152 -5.1803446 0 0 0 0 2
6.9490504 6.1179333 -5.1595526 0 0 0 0 2
7.793685 6.2449732 -5.205071 0 0 0 0 2
7.4017596 5.8086438 -5.2048278 0 0 0 0 2
7.1744676 6.0849643 -5.1591239 0 0 0 0 2
7.3424401 6.3322282 -5.1816263 0 0 0 0 2
7.650774 5.5465765 -5.203403 0 0 0 0 2
7.5643244 6.1188092 -5.1820598 0 0 0 0 2
7.6553798 6.0755339 -5.1894913 0 0 0 0 2
7.234273 5.7330012 -5.2018871 0 0 0 0 2
7.6459632 5.6636381 -5.1951752 0 0 0 0 2
7.4701867 5.5892477 -5.1957188 0 0 0 0 2
7.457768 5.9948564 -5.1801262 0 0 0 0 2
7.2680998 5.8358121 -5.184823 0 0 0 0 2
7.6209006 6.3780513 -5.2030873 0 0 0 0 2
7.6902351 5.8098688 -5.2075682 0 0 0 0 2
7.7374039 6.0792241 -5.2066736 0 0 0 0 2
7.369215 6.118083 -5.1746311 0 0 0 0 2
7.3343954 5.9538894 -5.2097168 0 0 0 0 2
7.4305768 6.1794739 -5.179944 0 0 0 0 2
7.4509573 5.7570639 -5.1992249 0 0 0 0 2
7.6942754 5.7061429 -5.2177539 0 0 0 0 2
7.7971034 5.9648428 -5.2011647 0 0 0 0 2
7.3358245 6.012373 -5.1983809 0 0 0 0 2
7.3379717 6.1895571 -5.1844373 0 0 0 0 2
7.7923975 6.264905 -5.2053943 0 0 0 0 2
7.1241302 5.671361 -5.1746039 0 0 0 0 2
7.708426 6.0390682 -5.2184877 0 0 0 0 2
6.913835 5.8838482 -5.1860404 0 0 0 0 2
7.3187847 6.1636796 -5.1778259 0 0 0 0 2
7.3152184 6.0775495 -5.1874962 0 0 0 0 2
7.7988348 6.3286357 -5.2011576 0 0 0 0 2
7.1483874 6.5323801 -5.1856585 0 0 0 0 2
6.8385882 5.9955716 -5.1655149 0 0 0 0 2
7.1644087 6.395144 -5.1825004 0 0 0 0 2
7.2444148 5.6934023 -5.1847539 0 0 0 0 2
7.5941553 6.2304845 -5.1912394 0 0 0 0 2
7.3152728 6.283092 -5.1912012 0 0 0 0 2
7.0509372 5.898643 -5.1901531 0 0 0 0 2
6.9704471 5.8033013 -5.1740479 0 0 0 0 2
6.8306904 6.0953245 -5.1584945 1 0 0 0 2
7.1930447 5.8054037 -5.155242 1 0 0 0 2
6.7155771 5.7394094 -5.1395903 1 0 0 0 2
7.0903101 6.1866875 -5.1572943 1 0 0 0 2
6.6467414 6.2393169 -5.1518974 1 0 0 0 2
7.40311 6.5880952 -5.1447549 1 0 0 0 2
6.8110394 6.2309432 -5.1468019 1 0 0 0 2
7.5820446 6.1067686 -5.1475625 1 0 0 0 2
6.9079742 6.3602085 -5.1528306 1 0 0 0 2
7.2743502 6.700098 -5.1570725 1 0 0 0 2
6.8734016 5.9454436 -5.1518807 1 0 0 0 2
6.8877492 6.1415706 -5.1550746 1 0 0 0 2
7.3471794 5.8928771 -5.1712518 1 0 0 0 2
7.2153707 6.1292706 -5.1636868 1 0 0 0 2
7.5910239 6.5866365 -5.1639619 1 0 0 0 2
7.5391083 6.1855659 -5.1728344 1 0 0 0 2
7.0013151 6.7200108 -5.1483636 1 0 0 0 2
7.6079578 6.3035374 -5.1601009 1 0 0 0 2
6.7997179 6.4329715 -5.1421833 1 0 0 0 2
7.2083578 6.0191593 -5.1568909 1 0 0 0 2
6.9675174 6.2336493 -5.151413 1 0 0 0 2
7.1121426 6.0397005 -5.1543813 1 0 0 0 2
7.0157175 6.1341681 -5.1297956 1 0 0 0 2
6.7186618 6.1025243 -5.155169 1 0 0 0 2
7.6219854 5.9140205 -5.1832862 1 0 0 0 2
7.2264576 6.3778577 -5.1560769 1 0 0 0 2
7.2530389 5.9005966 -5.1592636 1 0 0 0 2
6.813879 6.5145059 -5.1277399 1 0 0 0 2
6.6873236 6.4476218 -5.1519828 1 0 0 0 2
7.2296586 6.677774 -5.1623383 1 0 0 0 2
6.9934435 6.2505174 -5.1377835 1 0 0 0 2
7.3766761 6.0465722 -5.1669669 1 0 0 0 2
7.06776 6.3550682 -5.1564646 1 0 0 0 2
7.5421376 6.4218678 -5.1631675 1 0 0 0 2
7.1115241 5.8607073 -5.1680255 1 0 0 0 2
6.8371859 6.4650259 -5.1386762 1 0 0 0 2
6.9060197 6.0355711 -5.1469102 1 0 0 0 2
7.0506725 5.819881 -5.1510086 1 0 0 0 2
7.2740946 6.1760278 -5.1560297 1 0 0 0 2
6.8638825 6.5155888 -5.134697 1 0 0 0 2
7.2809463 6.1445842 -5.1519198 1 0 0 0 2
7.3261285 6.3033366 -5.1738033 1 0 0 0 2
6.7898746 6.7105174 -5.1274333 1 0 0 0 2
6.8838592 5.8407998 -5.1603222 1 0 0 0 2
6.6532302 6.5770159 -5.1335006 1 0 0 0 2
7.2098694 6.6125097 -5.1442652 1 0 0 0 2
7.1148987 6.0096197 -5.1424751 1 0 0 0 2
7.140326 6.5399604 -5.1521711 1 0 0 0 2
7.3491836 6.360549 -5.1461201 1 0 0 0 2
7.158577 6.7017803 -5.1423078 1 0 0 0 2
7.3285122 6.1268902 -4.9893265 2 0 0 0 2
7.0691223 5.6975236 -4.9899211 2 0 0 0 2
7.5640306 5.5902328 -4.9907603 2 0 0 0 2
6.9512186 6.3436007 -5.0048685 2 0 0 0 2
7.7528548 5.9384136 -4.9887261 2 0 0 0 2
7.5983415 5.6380615 -4.9824281 2 0 0 0 2
7.5549097 6.1624875 -5.0298734 2 0 0 0 2
7.4269886 6.2200975 -5.029336 2 0 0 0 2
7.422843 5.9620605 -5.0011683 2 0 0 0 2
7.8373833 5.6152511 -4.994873 2 0 0 0 2
7.6528502 6.0849714 -4.9923787 2 0 0 0 2
7.7989759 5.9232612 -5.0115762 2 0 0 0 2
7.1419935 5.7192173 -5.0031481 2 0 0 0 2
7.7661567 5.5064621 -5.0020609 2 0 0 0 2
7.3429065 5.7921219 -4.9988642 2 0 0 0 2
7.1139231 6.1093125 -4.9974647 2 0 0 0 2
7.4616456 5.8094959 -5.0077171 2 0 0 0 2
6.9636621 6.1983104 -4.9888706 2 0 0 0 2
7.871758 6.4667931 -4.9986944 2 0 0 0 2
7.7642345 5.9250693 -5.0049829 2 0 0 0 2
7.0518289 5.5756073 -4.9958968 2 0 0 0 2
7.4762349 6.2506704 -5.0017948 2 0 0 0 2
7.0816193 5.5257745 -4.989799 2 0 0 0 2
7.2790132 5.8669877 -5.0048685 2 0 0 0 2
7.7300472 6.1740437 -4.9944382 2 0 0 0 2
7.1293688 6.3089623 -4.9920287 2 0 0 0 2
7.5750036 6.0262609 -5.0034075 2 0 0 0 2
7.2346549 5.9700389 -4.9769382 2 0 0 0 2
7.2694459 5.8648353 -4.9929276 2 0 0 0 2
7.789855 6.1147623 -4.9947829 2 0 0 0 2
7.3786402 6.0260897 -4.9889569 2 0 0 0 2
7.7096014 6.2334514 -4.9917521 2 0 0 0 2
7.1774168 5.7338963 -5.0069585 2 0 0 0 2
7.3536086 6.1787982 -5.0157037 2 0 0 0 2
7.2871561 5.5482945 -5.0111489 2 0 0 0 2
7.8996758 5.9016085 -5.0155358 2 0 0 0 2
7.5265927 6.0102682 -5.0163984 2 0 0 0 2
7.682601 6.1643257 -4.9957933 2 0 0 0 2
7.1456261 6.1171474 -4.9942718 2 0 0 0 2
7.9127231 6.3483086 -4.9907947 2 0 0 0 2
6.9311419 6.1928287 -5.0090504 2 0 0 0 2
7.2809739 5.8499727 -5.0064058 2 0 0 0 2
7.7739148 5.7185235 -5.012248 2 0 0 0 2
7.0290627 5.6444855 -5.0097971 2 0 0 0 2
7.7856402 6.4675279 -4.9860597 2 0 0 0 2
7.3979797 5.8712072 -4.9775047 2 0 0 0 2
7.4411187 6.2081108 -4.9925723 2 0 0 0 2
7.744328 6.2177801 -5.0056105 2 0 0 0 2
7.4436445 5.6235375 -4.9965219 2 0 0 0 2
7.3617296 6.3197989 -4.9966464 2 0 0 0 2
7.1553106 6.7434759 -4.9113474 3 0 0 0 2
7.2329936 6.804318 -4.8947783 3 0 0 0 2
7.341392 6.5374389 -4.9151936 3 0 0 0 2
7.1637802 6.513741 -4.8992224 3 0 0 0 2
7.73244 6.1951957 -4.9038815 3 0 0 0 2
7.3879447 6.0903301 -4.925087 3 0 0 0 2
6.8797498 6.5689621 -4.9173169 3 0 0 0 2
7.4925418 6.4613614 -4.9326353 3 0 0 0 2
7.4646664 5.9098582 -4.9167485 3 0 0 0 2
7.1807456 6.6271739 -4.8926368 3 0 0 0 2
7.021996 6.1074681 -4.9188485 3 0 0 0 2
7.1248903 6.316216 -4.9130001 3 0 0 0 2
6.8679185 6.4673891 -4.9386487 3 0 0 0 2
7.0487852 6.3469691 -4.9126997 3 0 0 0 2
7.4683747 6.5633216 -4.9110041 3 0 0 0 2
7.1244025 5.9410353 -4.9160061 3 0 0 0 2
7.4065161 6.7876453 -4.9029522 3 0 0 0 2
7.2813392 6.7834311 -4.8898444 3 0 0 0 2
7.2487288 6.6332068 -4.915782 3 0 0 0 2
7.3221617 6.3077621 -4.9351211 3 0 0 0 2
7.4575615 6.7549586 -4.8869262 3 0 0 0 2
7.6067142 6.1959171 -4.9130898 3 0 0 0 2
7.4942002 6.0160623 -4.9461589 3 0 0 0 2
7.3658524 6.4320827 -4.9080868 3 0 0 0 2
7.17518 6.3011489 -4.9101319 3 0 0 0 2
7.3537693 6.0799417 -4.917069 3 0 0 0 2
7.5572844 5.9307628 -4.9244623 3 0 0 0 2
7.17313 6.3951726 -4.9132972 3 0 0 0 2
6.935637 6.7184591 -4.9080458 3 0 0 0 2
7.6094317 6.2284937 -4.9049335 3 0 0 0 2
7.1208587 6.5530124 -4.9110794 3 0 0 0 2
7.2229981 6.8462877 -4.8761625 3 0 0 0 2
6.8941259 6.485539 -4.906106 3 0 0 0 2
7.5078678 6.3547239 -4.9100933 3 0 0 0 2
6.8945312 6.6617265 -4.8959126 3 0 0 0 2
7.45296 6.1628418 -4.906642 3 0 0 0 2
7.0012918 6.2306542 -4.9110041 3 0 0 0 2
7.7361474 6.1485639 -4.9195957 3 0 0 0 2
7.4762731 6.2401443 -4.9113908 3 0 0 0 2
7.1969385 6.6128097 -4.9097438 3 0 0 0 2
7.2669873 6.5877428 -4.9058566 3 0 0 0 2
7.6446233 6.2306261 -4.9183974 3 0 0 0 2
6.9574904 6.1030788 -4.9277353 3 0 0 0 2
7.0424442 6.672905 -4.889039 3 0 0 0 2
7.0173612 6.1811213 -4.9144769 3 0 0 0 2
6.8269048 6.713841 -4.8874154 3 0 0 0 2
7.7794876 6.0072489 -4.9269395 3 0 0 0 2
7.635848 6.8043466 -4.9084692 3 0 0 0 2
7.6946483 5.9079199 -4.9424005 3 0 0 0 2
7.6298108 5.9568367 -4.9289474 3 0 0 0 2
7.4903989 5.8512239 -4.9133615 4 0 0 0 2
7.3553338 6.6594157 -4.8893881 4 0 0 0 2
6.8380742 6.118856 -4.9113512 4 0 0 0 2
6.9189405 6.606936 -4.9176211 4 0 0 0 2
7.5842166 5.9063535 -4.8826375 4 0 0 0 2
7.6971774 6.2587929 -4.8941517 4 0 0 0 2
7.117785 5.9309325 -4.9196858 4 0 0 0 2
6.9504576 6.1137652 -4.910634 4 0 0 0 2
7.0743718 6.1700406 -4.9065351 4 0 0 0 2
6.89855 6.2146144 -4.9101658 4 0 0 0 2
7.6931224 6.1976757 -4.9012756 4 0 0 0 2
6.8741498 6.5891638 -4.9040976 4 0 0 0 2
6.9505143 6.0961227 -4.8938565 4 0 0 0 2
6.8623867 5.7765565 -4.9161038 4 0 0 0 2
7.1662855 6.299715 -4.9103198 4 0 0 0 2
6.9861193 6.1507869 -4.9127431 4 0 0 0 2
7.2909541 6.5022569 -4.9016933 4 0 0 0 2
7.0837831 6.0952382 -4.9010353 4 0 0 0 2
7.0264292 5.777391 -4.9155841 4 0 0 0 2
7.371666 6.3699875 -4.9005795 4 0 0 0 2
7.6669879 6.5498366 -4.8924832 4 0 0 0 2
6.9161482 6.0199938 -4.9091969 4 0 0 0 2
7.6192636 5.981667 -4.9103608 4 0 0 0 2
6.8682704 6.2338614 -4.9090319 4 0 0 0 2
7.6009541 6.1289926 -4.9063549 4 0 0 0 2
7.4293551 5.8758373 -4.9108377 4 0 0 0 2
6.8814206 6.5926013 -4.8820934 4 0 0 0 2
6.8868089 6.6650805 -4.8832259 4 0 0 0 2
7.2817721 6.1946478 -4.9011064 4 0 0 0 2
7.033504 6.3113661 -4.9038382 4 0 0 0 2
7.5033746 5.8454666 -4.9125848 4 0 0 0 2
6.9257355 6.254355 -4.9024467 4 0 0 0 2
7.5849037 6.2491093 -4.8941274 4 0 0 0 2
7.6048484 6.3068089 -4.8998847 4 0 0 0 2
6.8121638 5.9003139 -4.9181075 4 0 0 0 2
7.0238848 6.5735698 -4.8928094 4 0 0 0 2
7.2353072 6.0029769 -4.8906083 4 0 0 0 2
7.3684621 5.7707849 -4.9233112 4 0 0 0 2
7.2511697 6.5429726 -4.9064665 4 0 0 0 2
6.9145317 5.8824573 -4.9194837 4 0 0 0 2
7.4999166 6.3535638 -4.9051294 4 0 0 0 2
7.6484022 6.5950027 -4.9021783 4 0 0 0 2
7.0145431 5.7077847 -4.9247069 4 0 0 0 2
7.5869842 5.8046227 -4.9163427 4 0 0 0 2
7.3497968 5.9625368 -4.9087782 4 0 0 0 2
7.7399487 5.858325 -4.9122467 4 0 0 0 2
7.6339202 6.3068438 -4.8905482 4 0 0 0 2
7.7143679 6.5469456 -4.9044123 4 0 0 0 2
7.5785594 6.5021329 -4.8840747 4 0 0 0 2
6.9355431 6.3262239 -4.9098129 4 0 0 0 2
8.0799084 5.4616222 -4.7285686 5 0 0 0 2
7.7164202 5.2056265 -4.7373815 5 0 0 0 2
7.6810799 5.1630373 -4.7312388 5 0 0 0 2
7.5722766 5.5106339 -4.7440248 5 0 0 0 2
7.4091287 5.859447 -4.7641268 5 0 0 0 2
7.5338387 6.0219011 -4.7713451 5 0 0 0 2
7.4697084 5.8975153 -4.7667198 5 0 0 0 2
7.7152448 5.4670138 -4.7640224 5 0 0 0 2
7.7527266 5.8889275 -4.747097 5 0 0 0 2
7.480227 5.7585063 -4.743619 5 0 0 0 2
7.7682753 5.6620984 -4.7443762 5 0 0 0 2
8.2828064 5.4696207 -4.7153602 5 0 0 0 2
8.2509613 5.2742839 -4.6950183 5 0 0 0 2
7.9114575 6.0495996 -4.7157488 5 0 0 0 2
7.7778969 5.7151003 -4.7446966 5 0 0 0 2
8.2558975 5.9978452 -4.7152534 5 0 0 0 2
7.6460958 5.2699366 -4.7447653 5 0 0 0 2
8.2592497 5.2255616 -4.7072854 5 0 0 0 2
7.3733397 5.3489232 -4.7576232 5 0 0 0 2
7.6994429 5.3207231 -4.7305694 5 0 0 0 2
8.2638187 5.2542734 -4.7168307 5 0 0 0 2
7.916759 5.2025266 -4.742135 5 0 0 0 2
7.9853911 5.9277749 -4.7453084 5 0 0 0 2
8.0368814 5.3877029 -4.7223449 5 0 0 0 2
7.4156504 5.4300895 -4.7546229 5 0 0 0 2
8.0132198 6.0992546 -4.7358217 5 0 0 0 2
7.7185698 5.5706306 -4.7291212 5 0 0 0 2
8.0033216 6.0627093 -4.7606578 5 0 0 0 2
7.9919834 5.2748137 -4.7359886 5 0 0 0 2
7.4703927 5.7916045 -4.7588472 5 0 0 0 2
7.5117631 6.0668254 -4.7726383 5 0 0 0 2
7.9527812 5.6915922 -4.729794 5 0 0 0 2
8.1717682 5.8312058 -4.7390566 5 0 0 0 2
8.1055307 5.4915171 -4.7300501 5 0 0 0 2
7.6324167 5.9240718 -4.7424979 5 0 0 0 2
8.1326294 6.0080881 -4.7299109 5 0 0 0 2
8.1862879 5.5994253 -4.7101159 5 0 0 0 2
8.0456028 5.149333 -4.7105803 5 0 0 0 2
8.1924629 5.2457623 -4.7162733 5 0 0 0 2
8.0130119 5.1053448 -4.7278533 5 0 0 0 2
7.6480188 5.9772658 -4.7474108 5 0 0 0 2
7.7322149 5.6412082 -4.7331934 5 0 0 0 2
7.8830385 5.415082 -4.7204046 5 0 0 0 2
7.4142151 5.2110119 -4.7443008 5 0 0 0 2
8.0442505 5.800406 -4.7382221 5 0 0 0 2
7.3292847 5.7158818 -4.7576332 5 0 0 0 2
7.3843069 5.5691886 -4.7438426 5 0 0 0 2
8.3033142 5.7499962 -4.7258654 5 0 0 0 2
7.9238968 5.9607787 -4.7469239 5 0 0 0 2
7.8617821 5.1739292 -4.7216291 5 0 0 0 2
