# .PCD v0.7 - Point Cloud Data file format
VERSION 0.7
FIELDS x y z intensity normal_x normal_y normal_z curvature
SIZE 4 4 4 4 4 4 4 4
TYPE F F F F F F F F
COUNT 1 1 1 1 1 1 1 1
WIDTH 100
HEIGHT 1
VIEWPOINT 0 0 0 1 0 0 0
POINTS 100
DATA ascii
-7.8446827 -7.027257 1.7516667 0 0 0 0 0
-7.8230815 -6.9891958 1.2667929 0 0 0 0 0
-7.1729116 -6.9943476 1.558002 0 0 0 0 0
-7.4147897 -7.0070863 1.0533353 0 0 0 0 0
-7.043107 -6.977756 1.0257481 0 0 0 0 0
-7.3381205 -6.9654317 0.91872728 0 0 0 0 0
-7.5761323 -7.0229897 1.3369032 0 0 0 0 0
-7.1001997 -7.0053525 0.83088267 0 0 0 0 0
-7.4902472 -7.016396 0.98233408 0 0 0 0 0
-7.771389 -7.0055575 1.2588212 0 0 0 0 0
-7.2547226 -7.0128098 0.91672117 0 0 0 0 0
-7.7527385 -6.9994459 1.3981508 0 0 0 0 0
-7.0418849 -6.95578 1.6293091 0 0 0 0 0
-6.9903879 -6.9979038 0.90730399 0 0 0 0 0
-7.5653329 -7.017828 1.4827501 0 0 0 0 0
-7.3646193 -7.0471082 1.2303592 0 0 0 0 0
-7.8570213 -6.9738288 1.1321459 0 0 0 0 0
-7.5430627 -6.9818521 1.3800302 0 0 0 0 0
-7.1400948 -7.0251398 0.85964155 0 0 0 0 0
-7.1892166 -6.999208 0.98775858 0 0 0 0 0
-7.1566448 -6.9807839 0.93886948 0 0 0 0 0
-7.8971901 -7.0112834 1.2326041 0 0 0 0 0
-7.3158631 -7.0028944 1.2084972 0 0 0 0 0
-7.5045171 -7.0112767 1.0884459 0 0 0 0 0
-7.8273149 -7.026298 1.5253359 0 0 0 0 0
-7.3650727 -6.9827318 1.4267566 0 0 0 0 0
-7.2854595 -6.97789 1.1999285 0 0 0 0 0
-7.0315485 -7.0095005 1.1235673 0 0 0 0 0
-7.5814428 -6.9894524 1.605675 0 0 0 0 0
-6.9897733 -6.9844828 1.5108887 0 0 0 0 0
-7.5063572 -7.013783 0.7954666 0 0 0 0 0
-7.0362663 -6.9820294 1.1256244 0 0 0 0 0
-7.1258607 -7.0024753 1.3826582 0 0 0 0 0
-7.002667 -6.9926763 1.6597515 0 0 0 0 0
-6.9961467 -6.9933734 0.95607662 0 0 0 0 0
-7.3737292 -7.0258074 1.6369983 0 0 0 0 0
-7.3713212 -6.988564 0.79004914 0 0 0 0 0
-7.6118646 -7.0013366 1.1224798 0 0 0 0 0
-7.5393858 -7.042398 1.7341943 0 0 0 0 0
-7.8808503 -6.9800825 1.4093206 0 0 0 0 0
-7.0244951 -7.0473218 1.1619116 0 0 0 0 0
-7.0517426 -7.0145354 1.268767 0 0 0 0 0
-7.9464321 -7.0002642 1.4124969 0 0 0 0 0
-7.2678299 -6.9658809 1.1363381 0 0 0 0 0
-7.4040756 -7.0236526 1.6241231 0 0 0 0 0
-7.2440333 -6.9972534 1.6751227 0 0 0 0 0
-7.3657742 -7.0218744 1.5462621 0 0 0 0 0
-7.420063 -7.0135922 1.4562302 0 0 0 0 0
-7.1992145 -6.9759073 1.4960335 0 0 0 0 0
-7.2429342 -7.0115352 1.389806 0 0 0 0 0
-7.2469802 -7.0090704 1.3287599 0 0 0 0 0
-7.1755815 -6.9841146 1.7387067 0 0 0 0 0
-7.1106005 -6.9776802 1.5205784 0 0 0 0 0
-7.6572552 -7.0029778 1.3311511 0 0 0 0 0
-7.7418551 -7.0153527 1.4367174 0 0 0 0 0
-7.1052442 -6.9969435 0.95994478 0 0 0 0 0
-7.376524 -6.9845757 1.1658605 0 0 0 0 0
-7.1836395 -7.0380659 1.3503971 0 0 0 0 0
-7.2490845 -6.9948645 0.96161395 0 0 0 0 0
-7.5927949 -7.0543246 0.99589109 0 0 0 0 0
-7.0854917 -6.9729657 0.85818833 0 0 0 0 0
-7.0472765 -7.0204234 0.78390306 0 0 0 0 0
-7.11057 -7.008008 1.4836873 0 0 0 0 0
-7.5868888 -6.9790258 1.3428109 0 0 0 0 0
-7.2740483 -7.0487223 1.6916195 0 0 0 0 0
-7.9175792 -7.0114574 0.88978338 0 0 0 0 0
-7.5585513 -6.9797759 1.3351005 0 0 0 0 0
-7.078517 -7.0042801 1.2072878 0 0 0 0 0
-7.1776271 -6.9915891 1.3712687 0 0 0 0 0
-7.5741472 -6.9876294 1.4741926 0 0 0 0 0
-7.4843602 -7.0047922 1.4019015 0 0 0 0 0
-7.9176602 -6.9610286 1.6229235 0 0 0 0 0
-7.4689336 -6.969151 1.0177625 0 0 0 0 0
-7.6006646 -7.0186458 1.5734792 0 0 0 0 0
-7.8326735 -7.0068412 1.0207939 0 0 0 0 0
-7.8798323 -6.9981794 0.81918842 0 0 0 0 0
-7.6429181 -7.0241041 1.7778174 0 0 0 0 0
-7.4112272 -7.0170269 1.2859821 0 0 0 0 0
-7.8321376 -7.0213952 0.89746499 0 0 0 0 0
-7.553309 -6.9629574 1.2621653 0 0 0 0 0
-7.5497818 -6.9984045 1.666754 0 0 0 0 0
-7.5959845 -6.994916 1.4077055 0 0 0 0 0
-7.8606496 -7.0039158 1.5501486 0 0 0 0 0
-7.5502133 -6.9619613 1.6307335 0 0 0 0 0
-7.0752196 -6.9825177 1.0080177 0 0 0 0 0
-7.0029936 -6.9967151 1.2475108 0 0 0 0 0
-7.0491433 -7.024405 1.670542 0 0 0 0 0
-7.1921859 -7.0159655 1.4476542 0 0 0 0 0
-7.6383181 -7.0009737 1.7738439 0 0 0 0 0
-7.5407367 -7.0297599 1.1836683 0 0 0 0 0
-7.5553255 -7.013793 1.3636339 0 0 0 0 0
-7.822896 -7.0362306 1.0176201 0 0 0 0 0
-7.1923394 -7.0261869 1.0893763 0 0 0 0 0
-7.7921877 -7.0040584 1.2322651 0 0 0 0 0
-7.6581674 -7.020134 0.87686741 0 0 0 0 0
-6.9871387 -7.0259395 0.98439848 0 0 0 0 0
-7.0064101 -7.015635 0.93586552 0 0 0 0 0
-7.235703 -6.9784861 1.7277645 0 0 0 0 0
-7.4157414 -6.9564929 0.95929033 0 0 0 0 0
-7.5961437 -7.0379124 0.78483844 0 0 0 0 0
