# .PCD v0.7 - Point Cloud Data file format
VERSION 0.7
FIELDS x y z intensity normal_x normal_y normal_z curvature
SIZE 4 4 4 4 4 4 4 4
TYPE F F F F F F F F
COUNT 1 1 1 1 1 1 1 1
WIDTH 100
HEIGHT 1
VIEWPOINT 0 0 0 1 0 0 0
POINTS 100
DATA ascii
-8.1180019 -3.5095754 -4.0658679 0 0 0 0 0
-8.1372881 -3.5147014 -4.5702958 0 0 0 0 0
-8.4537878 -3.4954426 -4.2632041 0 0 0 0 0
-8.302743 -3.496599 -3.9067001 0 0 0 0 0
-8.4835958 -3.5186186 -4.6166453 0 0 0 0 0
-8.6015835 -3.5184705 -3.8887205 0 0 0 0 0
-8.7191153 -3.5210547 -3.9283264 0 0 0 0 0
-8.2672377 -3.510813 -3.8321004 0 0 0 0 0
-8.4290714 -3.5291111 -3.8513036 0 0 0 0 0
-8.6827421 -3.5393467 -4.4300356 0 0 0 0 0
-8.2302141 -3.5234632 -3.738909 0 0 0 0 0
-8.4675798 -3.5462978 -3.8863504 0 0 0 0 0
-8.3072796 -3.5319543 -4.0399966 0 0 0 0 0
-8.644701 -3.5100579 -3.8574207 0 0 0 0 0
-8.3972464 -3.5308673 -4.5412908 0 0 0 0 0
-8.0898428 -3.519757 -3.8024259 0 0 0 0 0
-7.8054552 -3.5446403 -4.504303 0 0 0 0 0
-8.2892704 -3.4849439 -3.6260641 0 0 0 0 0
-8.1796017 -3.5244904 -4.3535762 0 0 0 0 0
-8.3416481 -3.5567193 -4.4642162 0 0 0 0 0
-8.3010387 -3.5169525 -4.5907407 0 0 0 0 0
-7.8342357 -3.5283079 -3.7665093 0 0 0 0 0
-7.8577967 -3.5057149 -4.4309845 0 0 0 0 0
-8.4338713 -3.4834704 -4.3917975 0 0 0 0 0
-7.9512367 -3.5275631 -4.0681572 0 0 0 0 0
-8.5281553 -3.5202439 -3.8379207 0 0 0 0 0
-8.2170582 -3.4929888 -4.4149528 0 0 0 0 0
-7.8725181 -3.5415475 -4.3780932 0 0 0 0 0
-7.852057 -3.4833102 -3.7643661 0 0 0 0 0
-7.8174801 -3.5176945 -3.7213135 0 0 0 0 0
-8.3219671 -3.476387 -3.8695469 0 0 0 0 0
-8.2917013 -3.5004165 -4.2429729 0 0 0 0 0
-8.5134401 -3.4924033 -3.8533974 0 0 0 0 0
-8.3570051 -3.530257 -3.6731331 0 0 0 0 0
-8.3246651 -3.4866748 -4.4304457 0 0 0 0 0
-7.8247995 -3.5131469 -3.7452507 0 0 0 0 0
-8.046155 -3.5263729 -3.6558666 0 0 0 0 0
-8.0646648 -3.5144856 -4.1600151 0 0 0 0 0
-8.3055162 -3.5111415 -4.373014 0 0 0 0 0
-8.0523548 -3.5306385 -3.9016829 0 0 0 0 0
-7.8685093 -3.5277522 -4.5365901 0 0 0 0 0
-8.6370058 -3.4964256 -4.4601583 0 0 0 0 0
-7.9581618 -3.5057893 -3.7710457 0 0 0 0 0
-8.135252 -3.4992383 -3.7178926 0 0 0 0 0
-8.6883287 -3.5334549 -3.6258636 0 0 0 0 0
-8.1909513 -3.5131502 -4.6227002 0 0 0 0 0
-7.9163547 -3.5059528 -4.0865974 0 0 0 0 0
-8.5777473 -3.542011 -4.588233 0 0 0 0 0
-8.0999117 -3.5119669 -4.2974415 0 0 0 0 0
-8.6692686 -3.487504 -4.0788565 0 0 0 0 0
-8.624959 -3.509124 -4.3641996 0 0 0 0 0
-7.9991474 -3.4836771 -4.586319 0 0 0 0 0
-8.5015297 -3.5306976 -4.14082 0 0 0 0 0
-8.4808168 -3.5091507 -3.7021127 0 0 0 0 0
-7.7930641 -3.5360453 -3.7943339 0 0 0 0 0
-7.7625847 -3.5165007 -4.158462 0 0 0 0 0
-8.4698687 -3.5114906 -4.5274186 0 0 0 0 0
-7.8451295 -3.5121858 -4.2678523 0 0 0 0 0
-8.7170277 -3.4964676 -4.3159251 0 0 0 0 0
-8.3470697 -3.5218837 -4.5660863 0 0 0 0 0
-8.5107288 -3.4873626 -4.4033561 0 0 0 0 0
-8.080266 -3.5345097 -3.7279024 0 0 0 0 0
-7.8916693 -3.5202482 -3.7533128 0 0 0 0 0
-8.410141 -3.5365148 -3.9466772 0 0 0 0 0
-8.1551065 -3.5320315 -3.9503682 0 0 0 0 0
-8.2315865 -3.5309689 -3.6442208 0 0 0 0 0
-8.3673534 -3.5382531 -3.6393099 0 0 0 0 0
-7.8928914 -3.5035954 -3.9742444 0 0 0 0 0
-8.3418283 -3.4970584 -4.4488773 0 0 0 0 0
-8.1324673 -3.5019891 -4.162003 0 0 0 0 0
-8.5030966 -3.5360534 -4.2182918 0 0 0 0 0
-8.1562605 -3.5167539 -4.5837197 0 0 0 0 0
-8.3764448 -3.5297027 -4.3248296 0 0 0 0 0
-8.336668 -3.4911449 -4.4642906 0 0 0 0 0
-8.3772993 -3.4796753 -4.3540263 0 0 0 0 0
-7.9666009 -3.4868913 -3.7411563 0 0 0 0 0
-8.3075027 -3.4937468 -4.3254471 0 0 0 0 0
-8.6448612 -3.524745 -4.2678447 0 0 0 0 0
-8.1160088 -3.5178912 -4.0995307 0 0 0 0 0
-8.229578 -3.5322585 -3.7871802 0 0 0 0 0
-8.4988079 -3.5126977 -3.7395818 0 0 0 0 0
-8.144599 -3.4995816 -4.1910577 0 0 0 0 0
-8.2680216 -3.5366833 -4.4745173 0 0 0 0 0
-8.2458773 -3.5215285 -3.7065578 0 0 0 0 0
-8.0106812 -3.4920788 -3.8237143 0 0 0 0 0
-8.1011763 -3.535176 -4.1524 0 0 0 0 0
-8.7015667 -3.522825 -4.2040973 0 0 0 0 0
-7.8656869 -3.4900625 -4.2372823 0 0 0 0 0
-7.8237009 -3.5083437 -3.6615882 0 0 0 0 0
-8.5510168 -3.532903 -3.7820058 0 0 0 0 0
-8.0324087 -3.4972167 -4.3900361 0 0 0 0 0
-8.4892721 -3.5376365 -3.9940875 0 0 0 0 0
-8.639349 -3.5015953 -4.3472714 0 0 0 0 0
-8.3435631 -3.5002401 -3.7097883 0 0 0 0 0
-8.0376921 -3.5216258 -4.024045 0 0 0 0 0
-8.2035389 -3.500483 -4.350347 0 0 0 0 0
-7.8744354 -3.5282245 -4.3321576 0 0 0 0 0
-7.835115 -3.5336618 -3.7677031 0 0 0 0 0
-8.0152073 -3.4702189 -4.078938 0 0 0 0 0
-8.4947147 -3.5139174 -3.8396003 0 0 0 0 0
