# .PCD v0.7 - Point Cloud Data file format
VERSION 0.7
FIELDS x y z intensity normal_x normal_y normal_z curvature
SIZE 4 4 4 4 4 4 4 4
TYPE F F F F F F F F
COUNT 1 1 1 1 1 1 1 1
WIDTH 900
HEIGHT 1
VIEWPOINT 0 0 0 1 0 0 0
POINTS 900
DATA ascii
7.1896434 -1.0797932 1.0937208 0 0 0 0 0
7.1493979 -1.0786781 1.3496716 0 0 0 0 0
6.843544 -1.0903305 1.2268885 0 0 0 0 0
7.4718809 -1.0716498 1.3620969 0 0 0 0 0
6.6796947 -1.0809517 1.5731225 0 0 0 0 0
7.1765943 -1.0884466 1.709118 0 0 0 0 0
7.00279 -1.0695097 0.88421428 0 0 0 0 0
6.9265218 -1.084643 1.4894469 0 0 0 0 0
7.2228642 -1.1101969 1.1165103 0 0 0 0 0
7.1796007 -1.0791205 1.0769138 0 0 0 0 0
7.2145171 -1.0919013 1.7573748 0 0 0 0 0
7.2131348 -1.0732478 1.7841325 0 0 0 0 0
6.8320613 -1.0638685 1.0339108 0 0 0 0 0
7.1472926 -1.0600321 0.88267547 0 0 0 0 0
7.1083446 -1.0804569 1.5744783 0 0 0 0 0
6.7821598 -1.0755247 1.1471113 0 0 0 0 0
7.2185812 -1.0772753 1.3796608 0 0 0 0 0
7.0879011 -1.0941924 1.1865395 0 0 0 0 0
6.9818034 -1.0882462 0.94479942 0 0 0 0 0
6.7786579 -1.0907646 0.9807815 0 0 0 0 0
7.6157432 -1.0751519 1.2092087 0 0 0 0 0
7.0085011 -1.0766225 1.2544062 0 0 0 0 0
7.5641403 -1.089005 1.2282419 0 0 0 0 0
6.9636574 -1.0815678 1.2856574 0 0 0 0 0
7.4998598 -1.0730039 1.2077101 0 0 0 0 0
6.9074678 -1.0679934 1.865636 0 0 0 0 0
6.8642526 -1.0743608 1.3626846 0 0 0 0 0
6.8293886 -1.0867627 0.91584533 0 0 0 0 0
7.4832864 -1.0842645 1.8169318 0 0 0 0 0
6.9870839 -1.0971205 1.867815 0 0 0 0 0
7.2708077 -1.0827858 1.80527 0 0 0 0 0
7.0206017 -1.0750778 1.8289373 0 0 0 0 0
6.7919693 -1.078261 1.1248373 0 0 0 0 0
7.4149485 -1.0754801 1.1570709 0 0 0 0 0
7.1789789 -1.0707105 1.5945232 0 0 0 0 0
7.2867374 -1.0869797 1.0571545 0 0 0 0 0
7.6098599 -1.0875945 1.4587445 0 0 0 0 0
7.1738195 -1.0687975 0.92136902 0 0 0 0 0
7.007875 -1.0802797 1.601415 0 0 0 0 0
6.7559447 -1.0778821 1.3717684 0 0 0 0 0
7.0841937 -1.0690676 1.638746 0 0 0 0 0
7.0549021 -1.0597785 1.2965978 0 0 0 0 0
6.7751956 -1.0862319 1.501104 0 0 0 0 0
6.6816673 -1.0735558 1.0481423 0 0 0 0 0
7.1136727 -1.0541896 0.95322663 0 0 0 0 0
7.4100871 -1.0823252 1.742331 0 0 0 0 0
7.4929819 -1.0833976 1.5578405 0 0 0 0 0
7.4889035 -1.0872788 1.8678632 0 0 0 0 0
6.8304033 -1.0623291 1.7060014 0 0 0 0 0
7.3749208 -1.0833957 1.5641867 0 0 0 0 0
7.4383912 -1.0582529 1.460987 1 0 0 0 0
6.9389639 -1.077806 0.99766082 1 0 0 0 0
7.329504 -1.0817046 1.2028589 1 0 0 0 0
6.7405324 -1.0870354 1.0903491 1 0 0 0 0
7.1629462 -1.0742378 1.2633678 1 0 0 0 0
7.2878776 -1.0901127 0.88066447 1 0 0 0 0
7.532197 -1.0770906 1.7368866 1 0 0 0 0
6.9718156 -1.0990404 1.6390257 1 0 0 0 0
7.3234563 -1.0908862 1.6442569 1 0 0 0 0
6.9637051 -1.0820975 1.1251378 1 0 0 0 0
7.3009729 -1.074917 1.3025601 1 0 0 0 0
7.2356148 -1.0870234 1.0872986 1 0 0 0 0
7.3064041 -1.0854458 1.7517618 1 0 0 0 0
6.8870015 -1.0742011 1.5483676 1 0 0 0 0
7.298871 -1.0911541 1.7137301 1 0 0 0 0
6.8607001 -1.0966885 0.90470421 1 0 0 0 0
6.8417711 -1.0877165 0.91423458 1 0 0 0 0
6.9730759 -1.0629977 1.8286117 1 0 0 0 0
7.0850101 -1.0848695 1.3274604 1 0 0 0 0
6.7060986 -1.0679126 0.85847503 1 0 0 0 0
6.9749951 -1.0898165 1.8059964 1 0 0 0 0
7.4182377 -1.0605705 1.1636561 1 0 0 0 0
7.2279682 -1.0707003 1.7443646 1 0 0 0 0
6.9660378 -1.107819 1.3829842 1 0 0 0 0
6.9647665 -1.0667269 0.96826851 1 0 0 0 0
6.8653798 -1.0840639 1.4922413 1 0 0 0 0
7.2452583 -1.0890647 1.2533942 1 0 0 0 0
6.8622103 -1.0818818 1.697378 1 0 0 0 0
7.4301271 -1.0734611 1.7215031 1 0 0 0 0
7.2084651 -1.0952723 1.3993649 1 0 0 0 0
7.4078288 -1.0561252 1.2419647 1 0 0 0 0
7.2302699 -1.0872884 1.5705492 1 0 0 0 0
7.5742149 -1.0740688 1.0175923 1 0 0 0 0
7.0045776 -1.0664855 1.5724896 1 0 0 0 0
7.4442654 -1.0880692 1.0464063 1 0 0 0 0
7.1459236 -1.0691899 0.83393449 1 0 0 0 0
6.7054353 -1.0691491 1.3872421 1 0 0 0 0
7.1673937 -1.0734997 1.3980709 1 0 0 0 0
7.5843277 -1.1026624 0.98836327 1 0 0 0 0
7.3342609 -1.0705274 1.1631298 1 0 0 0 0
6.9212294 -1.0722963 1.3939731 1 0 0 0 0
7.252892 -1.074054 1.7649952 1 0 0 0 0
7.0450878 -1.0816242 1.3951546 1 0 0 0 0
6.8873882 -1.0842772 0.95265317 1 0 0 0 0
7.501503 -1.0842705 1.3744571 1 0 0 0 0
6.8755007 -1.049849 1.3003434 1 0 0 0 0
7.6173902 -1.0626191 0.90916729 1 0 0 0 0
7.1727424 -1.0764306 1.1365627 1 0 0 0 0
7.2328129 -1.0871601 1.571462 1 0 0 0 0
7.0669832 -1.0722769 0.90630728 1 0 0 0 0
6.6320891 -1.0767448 0.92968464 2 0 0 0 0
6.6239176 -1.0606995 1.6945117 2 0 0 0 0
7.1986876 -1.0781323 0.95058221 2 0 0 0 0
6.8965917 -1.0920721 1.5839831 2 0 0 0 0
7.1200089 -1.0892595 1.0411894 2 0 0 0 0
6.8424978 -1.0907521 1.2032393 2 0 0 0 0
6.8344927 -1.0730234 1.0995312 2 0 0 0 0
6.9565697 -1.0658278 1.4566971 2 0 0 0 0
6.9991913 -1.0701535 1.4101865 2 0 0 0 0
6.8972592 -1.0766896 1.6949848 2 0 0 0 0
6.6089973 -1.0930886 1.577504 2 0 0 0 0
7.3264861 -1.074953 1.5484108 2 0 0 0 0
7.3098044 -1.0954922 0.99280715 2 0 0 0 0
6.7587724 -1.0689551 0.84058207 2 0 0 0 0
7.1577387 -1.0779115 1.0243762 2 0 0 0 0
6.6038442 -1.0711932 1.4474186 2 0 0 0 0
6.8562422 -1.0769387 0.87128925 2 0 0 0 0
7.1455054 -1.0767037 0.92162848 2 0 0 0 0
7.2264347 -1.0997026 1.6085473 2 0 0 0 0
7.2805071 -1.0737846 1.7111073 2 0 0 0 0
7.5343895 -1.0888342 1.0195167 2 0 0 0 0
6.9059467 -1.0877492 1.8320566 2 0 0 0 0
6.7242551 -1.0511397 1.4517313 2 0 0 0 0
7.5503511 -1.0669235 0.8776449 2 0 0 0 0
7.0080533 -1.0777385 1.2938749 2 0 0 0 0
6.6741724 -1.0806985 1.5426812 2 0 0 0 0
6.7298856 -1.0845879 1.5506512 2 0 0 0 0
7.2972064 -1.0677675 1.2267751 2 0 0 0 0
7.2011738 -1.068276 0.99644524 2 0 0 0 0
6.7631159 -1.0779332 1.0591447 2 0 0 0 0
7.1593599 -1.0891136 1.3364146 2 0 0 0 0
7.2166185 -1.0730565 1.1772014 2 0 0 0 0
7.1656814 -1.0917244 1.628415 2 0 0 0 0
6.9077826 -1.0768427 0.97220916 2 0 0 0 0
7.1158452 -1.0706617 1.1305807 2 0 0 0 0
7.1669612 -1.0761701 1.4904048 2 0 0 0 0
7.3733492 -1.0826392 1.2077104 2 0 0 0 0
6.7120962 -1.1003871 1.7900851 2 0 0 0 0
6.7261934 -1.0914108 1.5641122 2 0 0 0 0
6.6707587 -1.0809325 1.1204129 2 0 0 0 0
6.9274259 -1.0575929 1.3746027 2 0 0 0 0
6.7010098 -1.079388 0.94206661 2 0 0 0 0
7.1126533 -1.0871108 1.2634369 2 0 0 0 0
7.3819461 -1.0847225 1.3990213 2 0 0 0 0
6.9637289 -1.0754107 1.4448386 2 0 0 0 0
7.1891026 -1.0820456 1.4348692 2 0 0 0 0
7.0618067 -1.0800201 1.5301412 2 0 0 0 0
7.1998897 -1.0949566 1.3329624 2 0 0 0 0
7.0853958 -1.0648477 1.5254564 2 0 0 0 0
7.0478292 -1.0796237 1.0449102 2 0 0 0 0
6.9248676 -1.0618325 0.87932551 3 0 0 0 0
6.677155 -1.0742025 1.4944668 3 0 0 0 0
6.7106719 -1.0944792 1.008513 3 0 0 0 0
6.8660684 -1.0941091 1.7686898 3 0 0 0 0
6.7017765 -1.0756533 0.8489756 3 0 0 0 0
7.3941102 -1.0781999 1.7362283 3 0 0 0 0
7.2339444 -1.0633163 1.1142226 3 0 0 0 0
6.8953805 -1.0922893 1.1120943 3 0 0 0 0
7.540597 -1.0825148 0.92745078 3 0 0 0 0
7.526195 -1.0880316 1.0947287 3 0 0 0 0
6.8149767 -1.0788004 1.5120202 3 0 0 0 0
7.5206757 -1.0776601 1.5076519 3 0 0 0 0
7.3862653 -1.0982161 1.5840148 3 0 0 0 0
7.2094822 -1.1018189 1.1004052 3 0 0 0 0
7.4983759 -1.085602 1.563434 3 0 0 0 0
6.7482514 -1.0748527 0.87357056 3 0 0 0 0
6.7766137 -1.0823666 1.3110241 3 0 0 0 0
6.8886313 -1.0817528 1.7685667 3 0 0 0 0
6.6671786 -1.0839158 1.4008932 3 0 0 0 0
7.5307837 -1.0761508 1.4581378 3 0 0 0 0
6.6772671 -1.0760609 1.2121823 3 0 0 0 0
6.8222613 -1.0678626 1.7385051 3 0 0 0 0
7.0441604 -1.0677598 1.8326545 3 0 0 0 0
7.2823424 -1.0844722 1.0062493 3 0 0 0 0
7.2601299 -1.0752403 1.3828998 3 0 0 0 0
7.1210403 -1.0882251 1.6481259 3 0 0 0 0
7.4565177 -1.0791955 1.3447175 3 0 0 0 0
6.7187996 -1.0743457 0.90146494 3 0 0 0 0
6.7009325 -1.091102 1.2650217 3 0 0 0 0
7.402153 -1.0698159 1.5147046 3 0 0 0 0
6.7044797 -1.0829855 1.230372 3 0 0 0 0
7.3614988 -1.0660506 0.95818877 3 0 0 0 0
7.6190238 -1.0748212 1.4294097 3 0 0 0 0
7.4798422 -1.0706519 1.6360476 3 0 0 0 0
7.4242592 -1.0637685 1.1055176 3 0 0 0 0
7.4225702 -1.0756077 0.89595801 3 0 0 0 0
6.7751503 -1.0781803 1.2696347 3 0 0 0 0
7.4493322 -1.0826159 1.6208763 3 0 0 0 0
6.9772696 -1.0841069 1.7703216 3 0 0 0 0
7.3138709 -1.096768 0.88040543 3 0 0 0 0
6.9663358 -1.086374 1.8105114 3 0 0 0 0
7.1377225 -1.0785328 1.3617561 3 0 0 0 0
7.3115683 -1.0778782 1.6898205 3 0 0 0 0
7.5226088 -1.0626187 1.7725971 3 0 0 0 0
7.6119523 -1.0872973 1.283923 3 0 0 0 0
7.0431337 -1.0815139 1.2905722 3 0 0 0 0
6.6841106 -1.0794741 0.96015918 3 0 0 0 0
6.6561961 -1.0671579 1.1230863 3 0 0 0 0
6.8719635 -1.0628763 1.3379377 3 0 0 0 0
7.048593 -1.0764343 1.3899411 3 0 0 0 0
6.7941546 -1.0875964 1.0679713 4 0 0 0 0
6.8518124 -1.0772684 1.1610113 4 0 0 0 0
6.7911596 -1.0879197 1.647979 4 0 0 0 0
7.5278478 -1.0774752 1.6082242 4 0 0 0 0
6.9290605 -1.0777849 0.95138377 4 0 0 0 0
6.7032142 -1.0782502 1.2396981 4 0 0 0 0
7.0759888 -1.0698344 0.91037595 4 0 0 0 0
7.2953763 -1.0750847 1.5548013 4 0 0 0 0
6.775054 -1.0757535 1.6724812 4 0 0 0 0
7.6145644 -1.0837035 1.6998912 4 0 0 0 0
6.7255669 -1.0908004 1.2012401 4 0 0 0 0
7.3849912 -1.0704027 1.4033889 4 0 0 0 0
7.6226673 -1.0938511 0.9109872 4 0 0 0 0
6.9924769 -1.0741013 1.4266531 4 0 0 0 0
7.5063858 -1.0910208 1.0497041 4 0 0 0 0
7.0039854 -1.0706074 0.9632681 4 0 0 0 0
7.4615698 -1.0538936 1.4725959 4 0 0 0 0
7.2175732 -1.0667092 1.7084813 4 0 0 0 0
7.3880863 -1.0682881 1.2350284 4 0 0 0 0
6.8935575 -1.0838664 1.0493038 4 0 0 0 0
6.9708638 -1.0856432 1.5395706 4 0 0 0 0
6.739738 -1.0893543 1.5945441 4 0 0 0 0
7.4585629 -1.0830209 1.508036 4 0 0 0 0
7.3118696 -1.0545514 1.2519492 4 0 0 0 0
7.5802941 -1.0739642 1.3193126 4 0 0 0 0
7.3856912 -1.0866543 1.0344561 4 0 0 0 0
7.6050463 -1.084258 1.480997 4 0 0 0 0
7.0897326 -1.0642436 1.021927 4 0 0 0 0
7.2564125 -1.0731784 1.5244151 4 0 0 0 0
7.4679689 -1.0726365 1.5561806 4 0 0 0 0
6.6697092 -1.08191 0.95100021 4 0 0 0 0
7.200294 -1.0893989 1.6046747 4 0 0 0 0
7.5789456 -1.0807296 1.2743509 4 0 0 0 0
7.2241983 -1.0977823 0.97970992 4 0 0 0 0
7.2374096 -1.069702 0.92967075 4 0 0 0 0
7.2731452 -1.0871429 0.92703193 4 0 0 0 0
7.4460902 -1.0751593 1.6771984 4 0 0 0 0
7.4903107 -1.0768473 0.91908795 4 0 0 0 0
7.2756019 -1.0916388 1.194685 4 0 0 0 0
7.5645413 -1.0777886 0.98112738 4 0 0 0 0
7.122972 -1.0838031 1.0459749 4 0 0 0 0
7.5338702 -1.0790912 1.1759243 4 0 0 0 0
6.8826613 -1.0768654 1.229057 4 0 0 0 0
6.7691894 -1.0782194 1.3212034 4 0 0 0 0
7.225162 -1.0850394 1.423388 4 0 0 0 0
7.3361917 -1.0849642 1.7371289 4 0 0 0 0
7.438549 -1.0693461 1.2080241 4 0 0 0 0
7.3904305 -1.0760809 1.1158923 4 0 0 0 0
7.2243757 -1.0706968 0.92053211 4 0 0 0 0
7.0041356 -1.0910294 1.0288699 4 0 0 0 0
7.2657571 -1.0819726 1.5739251 5 0 0 0 0
7.4546995 -1.091737 1.6945953 5 0 0 0 0
7.204319 -1.0866317 1.0616987 5 0 0 0 0
6.8839436 -1.0782759 0.85933506 5 0 0 0 0
6.7748427 -1.0728825 1.076563 5 0 0 0 0
7.2447629 -1.0643468 1.3037997 5 0 0 0 0
6.9711475 -1.088129 1.496598 5 0 0 0 0
7.4156089 -1.080753 1.7529489 5 0 0 0 0
7.1410837 -1.0698909 1.150322 5 0 0 0 0
7.0545225 -1.0704644 1.2031821 5 0 0 0 0
6.8738766 -1.0815774 1.101635 5 0 0 0 0
7.0110817 -1.0724231 1.0483707 5 0 0 0 0
6.7090364 -1.0760194 1.5204014 5 0 0 0 0
7.1607304 -1.0843091 1.2640641 5 0 0 0 0
7.569284 -1.0744954 0.98563212 5 0 0 0 0
7.4627619 -1.0743583 0.99802119 5 0 0 0 0
7.2941737 -1.0605707 0.90263301 5 0 0 0 0
6.8035793 -1.0885018 1.2357601 5 0 0 0 0
7.6210957 -1.0931343 1.3233918 5 0 0 0 0
6.7048917 -1.0838827 1.0852374 5 0 0 0 0
6.7625508 -1.0903403 1.4031285 5 0 0 0 0
7.3652186 -1.0741769 1.6128485 5 0 0 0 0
7.6540155 -1.0644889 1.6499958 5 0 0 0 0
6.734704 -1.0799356 1.3031428 5 0 0 0 0
7.182621 -1.0903352 1.2163377 5 0 0 0 0
6.8030038 -1.0673577 1.5528166 5 0 0 0 0
7.6853848 -1.0907872 1.519104 5 0 0 0 0
6.7575002 -1.0657697 1.24854 5 0 0 0 0
7.3555474 -1.0838807 0.94132382 5 0 0 0 0
7.0340691 -1.0780939 1.4780493 5 0 0 0 0
7.6594777 -1.0737697 1.1872118 5 0 0 0 0
7.3730049 -1.0897683 1.5251397 5 0 0 0 0
7.3455458 -1.0825135 1.7330968 5 0 0 0 0
7.2984843 -1.061237 1.5506065 5 0 0 0 0
6.7479601 -1.0802655 1.7007884 5 0 0 0 0
7.3570995 -1.085132 1.7317994 5 0 0 0 0
7.4487677 -1.1017481 1.8313296 5 0 0 0 0
7.1322522 -1.0708449 1.0779613 5 0 0 0 0
6.7810507 -1.0785459 0.89628261 5 0 0 0 0
7.2329044 -1.0783238 1.5007542 5 0 0 0 0
7.0864224 -1.0725429 1.7647067 5 0 0 0 0
6.748878 -1.0841113 1.8151534 5 0 0 0 0
6.8004313 -1.085543 1.6058949 5 0 0 0 0
7.4331326 -1.0715216 1.8267015 5 0 0 0 0
6.9344378 -1.0888176 1.6714507 5 0 0 0 0
7.4527526 -1.0913092 0.95702839 5 0 0 0 0
7.0104294 -1.0847964 1.3503464 5 0 0 0 0
7.2739897 -1.068276 1.1156318 5 0 0 0 0
7.3579826 -1.0615164 1.4575223 5 0 0 0 0
6.8904486 -1.0888382 1.2393428 5 0 0 0 0
-4.8916168 8.5416937 -4.4404407 0 0 0 0 1
-4.8882189 8.1701574 -4.5230737 0 0 0 0 1
-4.8906283 8.6141376 -4.0621061 0 0 0 0 1
-4.9144483 8.0574446 -4.4830379 0 0 0 0 1
-4.9041548 8.6890583 -4.5684824 0 0 0 0 1
-4.8894324 8.2502642 -3.8100593 0 0 0 0 1
-4.8935471 8.023613 -4.0898204 0 0 0 0 1
-4.8777804 7.9488401 -4.2536016 0 0 0 0 1
-4.9022198 8.1654463 -4.5334611 0 0 0 0 1
-4.8784537 8.0547428 -4.2986064 0 0 0 0 1
-4.9039817 7.9788232 -4.3362312 0 0 0 0 1
-4.8941193 8.6913853 -4.4489183 0 0 0 0 1
-4.8882284 8.0111418 -4.4298711 0 0 0 0 1
-4.9048328 7.9212565 -4.5458331 0 0 0 0 1
-4.9017887 8.3495483 -3.8829527 0 0 0 0 1
-4.8998451 8.0948 -3.8388426 0 0 0 0 1
-4.8985806 8.4210262 -4.5820532 0 0 0 0 1
-4.8982782 7.7962189 -4.214015 0 0 0 0 1
-4.8855262 7.7348342 -4.0131392 0 0 0 0 1
-4.9088197 7.8008552 -4.4233842 0 0 0 0 1
-4.9067316 8.6371307 -4.5951066 0 0 0 0 1
-4.8903546 8.6280966 -4.2382369 0 0 0 0 1
-4.9024196 8.1938953 -4.303546 0 0 0 0 1
-4.8941884 8.5091276 -4.2876463 0 0 0 0 1
-4.8923044 8.6581573 -3.8239286 0 0 0 0 1
-4.8772078 8.3018818 -4.547369 0 0 0 0 1
-4.8967104 8.1163874 -4.046947 0 0 0 0 1
-4.8899674 8.1872034 -4.0038319 0 0 0 0 1
-4.8998199 7.7673659 -4.7015052 0 0 0 0 1
-4.9065976 8.4409342 -3.9751239 0 0 0 0 1
-4.8939304 8.2510481 -4.7778749 0 0 0 0 1
-4.9221764 8.1813679 -4.2449055 0 0 0 0 1
-4.8775206 8.1975231 -4.5823088 0 0 0 0 1
-4.8930039 8.4318304 -4.7985067 0 0 0 0 1
-4.8777828 8.4937744 -4.3731203 0 0 0 0 1
-4.8935108 7.9344716 -4.8044481 0 0 0 0 1
-4.8983512 8.2086239 -4.0917821 0 0 0 0 1
-4.8799539 8.1776581 -4.2570577 0 0 0 0 1
-4.8937526 8.365941 -3.9624989 0 0 0 0 1
-4.8996835 8.5401106 -3.8257434 0 0 0 0 1
-4.9168558 8.5969839 -3.9350882 0 0 0 0 1
-4.8930187 8.443491 -3.9487967 0 0 0 0 1
-4.8734684 7.9481134 -4.1565757 0 0 0 0 1
-4.8811893 8.638299 -4.6854 0 0 0 0 1
-4.9090967 8.6213913 -4.0940118 0 0 0 0 1
-4.8993087 8.4148455 -3.8187335 0 0 0 0 1
-4.8983536 8.2896128 -4.7698317 0 0 0 0 1
-4.8933434 8.5455694 -4.4282265 0 0 0 0 1
-4.8916502 8.5965567 -3.9562526 0 0 0 0 1
-4.8965764 8.4013033 -4.5887103 0 0 0 0 1
-4.905098 8.0017138 -4.013864 1 0 0 0 1
-4.9034414 8.2591925 -4.5393333 1 0 0 0 1
-4.8716178 8.2547836 -4.284111 1 0 0 0 1
-4.9120979 8.5803366 -3.8426676 1 0 0 0 1
-4.9048686 7.7980404 -4.3437104 1 0 0 0 1
-4.8937149 8.4797907 -3.9893775 1 0 0 0 1
-4.8939366 7.97122 -3.9585872 1 0 0 0 1
-4.8882432 8.1190462 -4.6040087 1 0 0 0 1
-4.8825369 8.5301456 -4.2339854 1 0 0 0 1
-4.9260626 8.1421804 -3.9190743 1 0 0 0 1
-4.902595 8.1543684 -4.0447536 1 0 0 0 1
-4.8858438 7.8199477 -4.2735796 1 0 0 0 1
-4.8890777 8.4814539 -3.9768095 1 0 0 0 1
-4.8965735 8.6002254 -4.1539259 1 0 0 0 1
-4.90447 8.0740366 -4.7516904 1 0 0 0 1
-4.888175 8.5115499 -4.698709 1 0 0 0 1
-4.8902931 8.6414948 -3.9733202 1 0 0 0 1
-4.9051533 7.7687049 -4.6063709 1 0 0 0 1
-4.9142728 8.5120468 -4.6697493 1 0 0 0 1
-4.8984475 7.9254756 -4.6145859 1 0 0 0 1
-4.9142313 8.5809765 -4.5213056 1 0 0 0 1
-4.8826537 8.1340475 -3.8225913 1 0 0 0 1
-4.8799663 8.7090931 -4.4910445 1 0 0 0 1
-4.8871822 8.1284676 -4.3327627 1 0 0 0 1
-4.8923411 7.9807339 -4.3391695 1 0 0 0 1
-4.8994961 8.536643 -4.3839741 1 0 0 0 1
-4.88274 8.0900145 -4.536787 1 0 0 0 1
-4.8962407 8.356246 -4.7391973 1 0 0 0 1
-4.88275 8.1610746 -3.7908952 1 0 0 0 1
-4.9004312 8.7404099 -4.7683105 1 0 0 0 1
-4.8966594 7.9946537 -4.1054916 1 0 0 0 1
-4.9004564 8.1242657 -3.9364727 1 0 0 0 1
-4.8812456 7.7631092 -4.6079235 1 0 0 0 1
-4.9018292 8.0522509 -4.3078237 1 0 0 0 1
-4.907526 8.6094179 -4.3255587 1 0 0 0 1
-4.8748388 7.9787893 -4.206182 1 0 0 0 1
-4.889956 8.590539 -4.0530529 1 0 0 0 1
-4.9083271 7.7653518 -4.3383598 1 0 0 0 1
-4.9065514 8.3559208 -4.7504058 1 0 0 0 1
-4.8967099 8.6095171 -4.55336 1 0 0 0 1
-4.8921442 8.073348 -4.6231661 1 0 0 0 1
-4.925096 7.8062053 -4.4250035 1 0 0 0 1
-4.8772893 8.2561483 -4.4598131 1 0 0 0 1
-4.8791733 8.139451 -3.8020055 1 0 0 0 1
-4.9027882 7.8582058 -4.4403296 1 0 0 0 1
-4.8832355 8.0694456 -4.7115679 1 0 0 0 1
-4.9063892 8.1602736 -3.7896924 1 0 0 0 1
-4.8869586 8.7012129 -4.3737516 1 0 0 0 1
-4.871552 8.2333755 -4.1225748 1 0 0 0 1
-4.8951931 8.6707525 -4.3366423 1 0 0 0 1
-4.9051547 7.8932133 -4.5042882 2 0 0 0 1
-4.9019904 8.6294584 -4.33641 2 0 0 0 1
-4.9006252 8.6456757 -3.8723295 2 0 0 0 1
-4.8926339 8.4104586 -3.9648094 2 0 0 0 1
-4.9037251 8.3465061 -4.0367217 2 0 0 0 1
-4.9107871 8.3839979 -4.6964664 2 0 0 0 1
-4.8847604 8.5828848 -3.8603721 2 0 0 0 1
-4.8861198 7.8458433 -4.7204971 2 0 0 0 1
-4.8845687 8.4559793 -4.0308399 2 0 0 0 1
-4.8916268 8.8046589 -4.6576362 2 0 0 0 1
-4.8973193 8.2063837 -4.2883544 2 0 0 0 1
-4.8966274 8.2819777 -4.744164 2 0 0 0 1
-4.8933725 8.1107264 -4.1746345 2 0 0 0 1
-4.8986235 8.4737444 -4.0759678 2 0 0 0 1
-4.9088082 8.0358772 -4.4205198 2 0 0 0 1
-4.8972521 7.992949 -4.7002487 2 0 0 0 1
-4.8895383 8.0850286 -3.9888933 2 0 0 0 1
-4.8723545 8.0980635 -4.724494 2 0 0 0 1
-4.8909745 7.8618574 -4.3059201 2 0 0 0 1
-4.8963261 8.0519104 -4.1572871 2 0 0 0 1
-4.8843598 8.3328695 -3.9897618 2 0 0 0 1
-4.9068503 8.3864441 -4.388134 2 0 0 0 1
-4.8832369 8.4038515 -4.6620808 2 0 0 0 1
-4.9009452 8.3808756 -4.4140425 2 0 0 0 1
-4.8878932 8.2785664 -4.3309927 2 0 0 0 1
-4.8909111 8.6281357 -4.1884294 2 0 0 0 1
-4.912468 7.8182397 -4.675983 2 0 0 0 1
-4.881063 8.1742115 -4.2419982 2 0 0 0 1
-4.8994303 8.3217068 -4.5903955 2 0 0 0 1
-4.9052896 8.4945717 -4.0682988 2 0 0 0 1
-4.8927083 8.0849991 -4.5867295 2 0 0 0 1
-4.8799877 8.2103424 -3.8876498 2 0 0 0 1
-4.8969698 8.3230553 -4.5155387 2 0 0 0 1
-4.8947558 7.9063272 -4.4214659 2 0 0 0 1
-4.9026256 8.5787382 -4.101696 2 0 0 0 1
-4.8928924 8.0477247 -4.560636 2 0 0 0 1
-4.8973756 8.3216133 -4.2329135 2 0 0 0 1
-4.9129815 8.38587 -4.8302779 2 0 0 0 1
-4.8978519 8.4740248 -4.7935619 2 0 0 0 1
-4.8903232 8.7357922 -4.5466824 2 0 0 0 1
-4.8853793 7.9925184 -4.3888116 2 0 0 0 1
-4.8939657 7.8117681 -4.4382596 2 0 0 0 1
-4.8854394 8.1229668 -3.9122722 2 0 0 0 1
-4.8999357 7.9089503 -4.1844015 2 0 0 0 1
-4.8998184 8.2802143 -4.0314946 2 0 0 0 1
-4.8941679 8.0050135 -4.786746 2 0 0 0 1
-4.8898139 8.6032019 -4.1801472 2 0 0 0 1
-4.8985262 7.9684005 -4.7244282 2 0 0 0 1
-4.8928399 8.5426426 -4.7737427 2 0 0 0 1
-4.9098444 8.7414923 -4.4062085 2 0 0 0 1
-4.8903437 8.7057114 -3.8558941 3 0 0 0 1
-4.8824825 8.018898 -4.318265 3 0 0 0 1
-4.9047089 8.5498085 -4.6944823 3 0 0 0 1
-4.9089656 8.4755707 -4.3075838 3 0 0 0 1
-4.8915758 7.8543243 -3.9261081 3 0 0 0 1
-4.9045391 8.5372181 -3.821378 3 0 0 0 1
-4.8924875 7.8826551 -4.6011615 3 0 0 0 1
-4.8992624 8.4279709 -4.4933643 3 0 0 0 1
-4.9068947 8.0189896 -4.0971746 3 0 0 0 1
-4.8908596 8.7496681 -4.698976 3 0 0 0 1
-4.8936095 8.7479324 -4.3440027 3 0 0 0 1
-4.9118471 7.8466525 -4.3828712 3 0 0 0 1
-4.8884788 7.7598877 -4.3970613 3 0 0 0 1
-4.8820896 8.5500145 -4.6514816 3 0 0 0 1
-4.892911 7.8267865 -4.0440044 3 0 0 0 1
-4.888114 8.0294867 -4.1459112 3 0 0 0 1
-4.8978062 8.5237436 -4.4318309 3 0 0 0 1
-4.8925142 7.8738565 -4.5080872 3 0 0 0 1
-4.8918381 8.5480175 -4.4977002 3 0 0 0 1
-4.8884683 8.6068821 -4.157125 3 0 0 0 1
-4.9066534 8.7121143 -4.6869903 3 0 0 0 1
-4.8807292 8.2546721 -3.8590684 3 0 0 0 1
-4.894886 8.0158434 -4.0019341 3 0 0 0 1
-4.9232912 7.9296532 -4.6260672 3 0 0 0 1
-4.8974071 8.3894472 -4.464468 3 0 0 0 1
-4.9054728 7.9610677 -4.5179834 3 0 0 0 1
-4.884748 8.6166983 -4.0665169 3 0 0 0 1
-4.8954015 8.7269526 -3.9894903 3 0 0 0 1
-4.8934255 7.9143262 -4.3281121 3 0 0 0 1
-4.8979549 8.6169853 -3.918674 3 0 0 0 1
-4.8927712 8.168951 -4.574441 3 0 0 0 1
-4.8939705 8.6846495 -4.348259 3 0 0 0 1
-4.8882356 8.6266022 -4.7872562 3 0 0 0 1
-4.8958173 8.0575056 -4.1411738 3 0 0 0 1
-4.8904281 8.0235319 -4.4783349 3 0 0 0 1
-4.8895693 8.1432829 -4.034296 3 0 0 0 1
-4.8989134 8.3190889 -3.9847724 3 0 0 0 1
-4.9006133 8.3208113 -4.721745 3 0 0 0 1
-4.8952198 8.6157818 -4.7340722 3 0 0 0 1
-4.8760209 8.3907137 -4.5295801 3 0 0 0 1
-4.9095984 8.5491819 -4.3984017 3 0 0 0 1
-4.8787346 8.504035 -3.9171128 3 0 0 0 1
-4.9001846 8.2804756 -4.3807111 3 0 0 0 1
-4.9175167 8.6494188 -3.9388576 3 0 0 0 1
-4.8901758 8.2562628 -4.2223763 3 0 0 0 1
-4.8947496 7.8989916 -4.1399641 3 0 0 0 1
-4.8753223 8.1717348 -3.9608376 3 0 0 0 1
-4.9006639 7.9666586 -4.2781525 3 0 0 0 1
-4.8847132 8.7289591 -4.5614796 3 0 0 0 1
-4.9022269 8.0723228 -4.5500956 3 0 0 0 1
-4.8965688 8.4364443 -4.3712549 4 0 0 0 1
-4.8976631 7.9931474 -4.0671382 4 0 0 0 1
-4.8893685 8.5585413 -3.8212616 4 0 0 0 1
-4.8746428 8.5004396 -4.182404 4 0 0 0 1
-4.8821912 7.8105383 -4.2253647 4 0 0 0 1
-4.8991928 8.3362103 -4.7510471 4 0 0 0 1
-4.8893619 8.2735834 -4.4491391 4 0 0 0 1
-4.9129696 8.3027735 -3.8542364 4 0 0 0 1
-4.9083405 8.6790342 -4.2285147 4 0 0 0 1
-4.8791647 8.5290833 -3.883014 4 0 0 0 1
-4.8977056 7.9448962 -3.9205828 4 0 0 0 1
-4.9038224 7.9593158 -4.0292349 4 0 0 0 1
-4.8997264 8.2472773 -4.2110128 4 0 0 0 1
-4.887145 8.3878069 -4.7716236 4 0 0 0 1
-4.9060512 7.978713 -4.562942 4 0 0 0 1
-4.9046483 8.4270983 -4.6513824 4 0 0 0 1
-4.907486 8.0551538 -4.0717411 4 0 0 0 1
-4.8852906 8.5052929 -4.1578422 4 0 0 0 1
-4.8846493 7.8538971 -4.6572895 4 0 0 0 1
-4.8996797 8.0343561 -4.3198519 4 0 0 0 1
-4.8801551 8.5974264 -4.0985961 4 0 0 0 1
-4.8887105 8.6343317 -4.3286376 4 0 0 0 1
-4.8854599 8.4991503 -4.4217076 4 0 0 0 1
-4.8856339 7.8282986 -4.2183828 4 0 0 0 1
-4.8996186 8.5530033 -4.2740974 4 0 0 0 1
-4.8736434 8.0938578 -3.7992218 4 0 0 0 1
-4.8934164 7.926887 -4.0898714 4 0 0 0 1
-4.8998919 8.4906712 -4.0361462 4 0 0 0 1
-4.9178734 7.9994588 -4.0161676 4 0 0 0 1
-4.9118567 7.9655304 -4.6745992 4 0 0 0 1
-4.8936858 7.7273855 -4.1443634 4 0 0 0 1
-4.8927126 8.5567255 -4.4318171 4 0 0 0 1
-4.9023929 8.0540934 -4.0063734 4 0 0 0 1
-4.8900714 8.480587 -4.151464 4 0 0 0 1
-4.8995423 8.1463776 -4.6078134 4 0 0 0 1
-4.8855195 8.6049948 -3.8078673 4 0 0 0 1
-4.9130211 8.6034765 -3.8285429 4 0 0 0 1
-4.8806577 8.3060236 -4.45785 4 0 0 0 1
-4.9008303 8.3649483 -4.3075652 4 0 0 0 1
-4.8857346 8.4391584 -3.8417273 4 0 0 0 1
-4.8957272 8.0850868 -4.3621788 4 0 0 0 1
-4.8929195 8.2713223 -3.8334072 4 0 0 0 1
-4.9044008 8.0650148 -4.2732534 4 0 0 0 1
-4.8930831 8.664362 -4.5669851 4 0 0 0 1
-4.8968983 8.2089453 -4.6611805 4 0 0 0 1
-4.8983107 8.0295143 -4.4622889 4 0 0 0 1
-4.8962278 8.5218706 -4.7302523 4 0 0 0 1
-4.8983626 7.8131304 -4.538023 4 0 0 0 1
-4.8934402 8.4725971 -3.9433963 4 0 0 0 1
-4.8930202 7.9830799 -4.0123806 4 0 0 0 1
-4.9120398 8.2585049 -4.1352401 5 0 0 0 1
-4.8978481 8.5443602 -3.8749983 5 0 0 0 1
-4.8843985 8.5060778 -3.85093 5 0 0 0 1
-4.8994527 7.7522244 -4.7325678 5 0 0 0 1
-4.8742156 8.0819044 -4.6362877 5 0 0 0 1
-4.9095626 8.5394268 -4.5081196 5 0 0 0 1
-4.9073467 8.0576534 -4.1563177 5 0 0 0 1
-4.8959513 8.5515156 -4.6911149 5 0 0 0 1
-4.8918753 8.6500072 -4.2203832 5 0 0 0 1
-4.912468 8.6820717 -4.2033577 5 0 0 0 1
-4.8804851 8.6688042 -4.3000293 5 0 0 0 1
-4.9079242 8.056675 -4.7745185 5 0 0 0 1
-4.8934927 8.2509956 -3.9010863 5 0 0 0 1
-4.8860116 8.4320965 -4.4553547 5 0 0 0 1
-4.8906384 7.7008882 -3.9040463 5 0 0 0 1
-4.9097967 7.8747897 -4.6310215 5 0 0 0 1
-4.8834562 8.5329256 -3.8149269 5 0 0 0 1
-4.8767529 7.9973674 -3.8847384 5 0 0 0 1
-4.8766356 7.8192 -4.6664948 5 0 0 0 1
-4.8956866 8.2202539 -4.0516863 5 0 0 0 1
-4.8993912 7.9149141 -4.7354169 5 0 0 0 1
-4.897337 7.752625 -4.7682872 5 0 0 0 1
-4.8991704 7.959404 -4.0138693 5 0 0 0 1
-4.9020252 7.9697237 -4.0776749 5 0 0 0 1
-4.9019747 7.950027 -4.3791885 5 0 0 0 1
-4.892982 7.8895216 -4.4944553 5 0 0 0 1
-4.8900132 8.6941319 -4.7562866 5 0 0 0 1
-4.893734 8.4604502 -4.1400633 5 0 0 0 1
-4.8894448 7.857357 -4.2907066 5 0 0 0 1
-4.8850908 7.7775793 -4.3898067 5 0 0 0 1
-4.8712459 8.4614658 -4.2927213 5 0 0 0 1
-4.8833122 8.6368036 -4.4030561 5 0 0 0 1
-4.9015698 8.1314201 -4.1726365 5 0 0 0 1
-4.9008012 7.7013912 -4.7147536 5 0 0 0 1
-4.8974719 7.711555 -4.2942677 5 0 0 0 1
-4.8950753 8.623229 -4.6000648 5 0 0 0 1
-4.9210882 8.4669971 -4.1768742 5 0 0 0 1
-4.8894806 7.6962719 -3.9532506 5 0 0 0 1
-4.9028697 7.8191581 -4.7094493 5 0 0 0 1
-4.9010677 8.1692562 -4.7392836 5 0 0 0 1
-4.8778982 7.776104 -4.0762949 5 0 0 0 1
-4.911263 8.3592854 -4.5896802 5 0 0 0 1
-4.8779926 8.2652502 -4.6967378 5 0 0 0 1
-4.8944688 8.3709002 -4.4934082 5 0 0 0 1
-4.880744 8.5153008 -4.5264764 5 0 0 0 1
-4.8971133 7.7565703 -4.6545105 5 0 0 0 1
-4.8973804 8.447525 -4.0128765 5 0 0 0 1
-4.9058518 7.8292952 -4.4664078 5 0 0 0 1
-4.9135156 8.5131712 -3.9339015 5 0 0 0 1
-4.9097233 7.7513986 -4.457068 5 0 0 0 1
7.1396985 6.0857239 -5.0013733 0 0 0 0 2
7.4620967 6.2208109 -5.0082226 0 0 0 0 2
7.8350534 5.9114695 -5.015501 0 0 0 0 2
6.9360485 6.1312528 -5.0096488 0 0 0 0 2
7.131361 5.8006706 -5.0019698 0 0 0 0 2
7.2473645 6.3947921 -5.0146756 0 0 0 0 2
7.4022722 5.7518272 -5.0135508 0 0 0 0 2
7.3515196 5.6495757 -5.013855 0 0 0 0 2
7.2416563 5.5799541 -5.0136914 0 0 0 0 2
7.3946314 5.8912301 -5.0175118 0 0 0 0 2
7.0388422 5.9339976 -5.0113254 0 0 0 0 2
7.0269952 6.0874643 -4.9928107 0 0 0 0 2
7.869884 6.231328 -5.0142732 0 0 0 0 2
7.4870496 5.7870402 -5.0202141 0 0 0 0 2
7.2529144 6.0591626 -4.9850888 0 0 0 0 2
7.4164581 6.3095388 -5.005722 0 0 0 0 2
7.7411575 5.5302062 -5.0077629 0 0 0 0 2
7.6425261 6.1007557 -4.996594 0 0 0 0 2
7.7346244 6.059279 -5.0006809 0 0 0 0 2
7.3211174 5.7080002 -5.0213761 0 0 0 0 2
7.7337275 5.6472378 -5.0012264 0 0 0 0 2
7.5595922 5.5692344 -5.0061398 0 0 0 0 2
7.5384922 5.9746642 -4.9962726 0 0 0 0 2
7.3523159 5.8116932 -5.0046449 0 0 0 0 2
7.6944613 6.360826 -5.0193005 0 0 0 0 2
7.7753892 5.7941842 -5.0141902 0 0 0 0 2
7.8170457 6.0644455 -5.0154061 0 0 0 0 2
7.4473357 6.096096 -4.9950972 0 0 0 0 2
7.4169407 5.9307919 -5.0290618 0 0 0 0 2
7.507576 6.158669 -4.9993477 0 0 0 0 2
7.537086 5.7365608 -5.0124383 0 0 0 0 2
7.7818394 5.690444 -5.022882 0 0 0 0 2
7.8788514 5.9513988 -5.006578 0 0 0 0 2
7.4168367 5.98943 -5.0184584 0 0 0 0 2
7.4149675 6.1667819 -5.0067892 0 0 0 0 2
7.8682036 6.2512231 -5.0148978 0 0 0 0 2
7.2114596 5.6444468 -4.9966483 0 0 0 0 2
7.7892628 6.0235553 -5.0275669 0 0 0 0 2
6.9973559 5.8523889 -5.0172744 0 0 0 0 2
7.3961143 6.1405988 -5.0004249 0 0 0 0 2
7.3945909 6.0542989 -5.0090647 0 0 0 0 2
7.8732166 6.3151212 -5.0113068 0 0 0 0 2
7.2186084 6.5055766 -5.0182915 0 0 0 0 2
6.9192681 5.9627838 -5.0005207 0 0 0 0 2
7.2373004 6.368751 -5.0128412 0 0 0 0 2
7.3315282 5.6688366 -5.0034223 0 0 0 0 2
7.6703577 6.2128987 -5.0063305 0 0 0 0 2
7.3905978 6.2597361 -5.0154715 0 0 0 0 2
7.134192 5.869957 -5.0174079 0 0 0 0 2
7.055192 5.7731838 -5.0025058 0 0 0 0 2
7.0805426 5.9214559 -5.0201035 1 0 0 0 2
7.4390564 5.6271539 -5.0052848 1 0 0 0 2
6.9605613 5.5671802 -5.0006824 1 0 0 0 2
7.3411789 6.0096321 -5.0134187 1 0 0 0 2
6.898303 6.0677528 -5.019351 1 0 0 0 2
7.6585774 6.4072723 -4.9970045 1 0 0 0 2
7.0623112 6.0574121 -5.0101657 1 0 0 0 2
7.8314934 5.9237809 -4.9909306 1 0 0 0 2
7.1609731 6.1854134 -5.0150361 1 0 0 0 2
7.5315661 6.5207229 -5.0135121 1 0 0 0 2
7.1212025 5.7711329 -5.011044 1 0 0 0 2
7.1380754 5.9670291 -5.0157242 1 0 0 0 2
7.5946164 5.7125697 -5.0183444 1 0 0 0 2
7.4656301 5.9506254 -5.0162158 1 0 0 0 2
7.8468699 6.4033213 -5.0116014 1 0 0 0 2
7.7901731 6.0028515 -5.0179811 1 0 0 0 2
7.2586708 6.5440693 -5.011662 1 0 0 0 2
7.8601627 6.1200862 -5.0046759 1 0 0 0 2
7.0534086 6.2595997 -5.0077181 1 0 0 0 2
7.4570775 5.8406792 -5.0085621 1 0 0 0 2
7.2188764 6.0581527 -5.0109782 1 0 0 0 2
7.361094 5.8624234 -5.0085959 1 0 0 0 2
7.2652888 5.9583011 -4.9872589 1 0 0 0 2
6.968565 5.9300618 -5.0195827 1 0 0 0 2
7.8698769 5.7302208 -5.0238605 1 0 0 0 2
7.4796371 6.1991196 -5.0106673 1 0 0 0 2
7.5003166 5.7215595 -5.0087318 1 0 0 0 2
7.0682325 6.3410897 -4.9936976 1 0 0 0 2
6.9414773 6.2755332 -5.0203967 1 0 0 0 2
7.4867401 6.4988995 -5.019659 1 0 0 0 2
7.2446723 6.0748324 -4.9968786 1 0 0 0 2
7.6259203 5.8659253 -5.0147805 1 0 0 0 2
7.3207231 6.1782775 -5.0147176 1 0 0 0 2
7.7959218 6.2391806 -5.0104575 1 0 0 0 2
7.3585687 5.6833277 -5.0205731 1 0 0 0 2
7.0911779 6.291224 -5.0035977 1 0 0 0 2
7.1548152 5.8608971 -5.0061235 1 0 0 0 2
7.2968154 5.6434178 -5.0046659 1 0 0 0 2
7.5247307 5.9967303 -5.0075655 1 0 0 0 2
7.1184006 6.3414912 -4.9994411 1 0 0 0 2
7.5310869 5.9652462 -5.002995 1 0 0 0 2
7.5787692 6.1232123 -5.0252547 1 0 0 0 2
7.0466814 6.537375 -4.9958143 1 0 0 0 2
7.1305523 5.6662922 -5.0182467 1 0 0 0 2
6.908566 6.4055085 -5.0039663 1 0 0 0 2
7.4657025 6.4340611 -5.0014639 1 0 0 0 2
7.3631835 5.8324275 -4.9963446 1 0 0 0 2
7.3954701 6.3622975 -5.0103855 1 0 0 0 2
7.6018586 6.1804032 -4.9975543 1 0 0 0 2
7.4154987 6.5239692 -5.0015965 1 0 0 0 2
7.2720904 6.1785898 -4.9995456 2 0 0 0 2
7.0161867 5.7471385 -5.0010891 2 0 0 0 2
7.5119457 5.6438551 -4.9996853 2 0 0 0 2
6.8931289 6.3922343 -5.01686 2 0 0 0 2
7.6979365 5.9935527 -4.9969769 2 0 0 0 2
7.5458312 5.6919632 -4.9912233 2 0 0 0 2
7.4983702 6.2160001 -5.0391054 2 0 0 0 2
7.3699856 6.2725735 -5.0391617 2 0 0 0 2
7.3678026 6.0145235 -5.0108919 2 0 0 0 2
7.7851024 5.671082 -5.0025988 2 0 0 0 2
7.5967669 6.1392951 -5.0011411 2 0 0 0 2
7.7442799 5.9787641 -5.0196152 2 0 0 0 2
7.0889382 5.7694154 -5.0140028 2 0 0 0 2
7.7147908 5.5617175 -5.0100508 2 0 0 0 2
7.2892337 5.8439445 -5.008863 2 0 0 0 2
7.0576887 6.1592731 -5.008626 2 0 0 0 2
7.407867 5.8622746 -5.0171976 2 0 0 0 2
6.9066763 6.247056 -5.0007396 2 0 0 0 2
7.8126054 6.5228724 -5.0066648 2 0 0 0 2
7.709496 5.9802938 -5.0131769 2 0 0 0 2
6.999907 5.6250834 -5.0070844 2 0 0 0 2
7.4188609 6.3035555 -5.0114169 2 0 0 0 2
7.0300717 5.5754962 -5.0008316 2 0 0 0 2
7.2247643 5.9182887 -5.0151849 2 0 0 0 2
7.6732497 6.2289877 -5.0029001 2 0 0 0 2
7.0714946 6.3590436 -5.0032148 2 0 0 0 2
7.5194478 6.0799518 -5.0124869 2 0 0 0 2
7.1794505 6.0209894 -4.9874997 2 0 0 0 2
7.2151618 5.9160638 -5.0032859 2 0 0 0 2
7.7335358 6.1701922 -5.0029521 2 0 0 0 2
7.32303 6.0781984 -4.9989066 2 0 0 0 2
7.6523118 6.2882295 -5.0003324 2 0 0 0 2
7.124258 5.7843785 -5.017663 2 0 0 0 2
7.2968826 6.2306876 -5.025835 2 0 0 0 2
7.2355127 5.599669 -5.0212808 2 0 0 0 2
7.8451681 5.9579248 -5.0231185 2 0 0 0 2
7.4712257 6.0635624 -5.0256853 2 0 0 0 2
7.6258903 6.2188859 -5.0044608 2 0 0 0 2
7.0893126 6.1673656 -5.0052962 2 0 0 0 2
7.8544917 6.4047265 -4.9985285 2 0 0 0 2
6.8742909 6.2413025 -5.02106 2 0 0 0 2
7.2268696 5.9012895 -5.016706 2 0 0 0 2
7.7208786 5.7738299 -5.0203028 2 0 0 0 2
6.9766464 5.693769 -5.0211172 2 0 0 0 2
7.7264295 6.5229158 -4.9944124 2 0 0 0 2
7.3435707 5.9234824 -4.9872966 2 0 0 0 2
7.3840494 6.2607174 -5.0023303 2 0 0 0 2
7.6872258 6.2728338 -5.014029 2 0 0 0 2
7.3913212 5.6761818 -5.0059958 2 0 0 0 2
7.3037786 6.3717575 -5.0068083 2 0 0 0 2
7.2281961 6.4099574 -5.0179558 3 0 0 0 2
7.3077703 6.4686561 -5.0026813 3 0 0 0 2
7.4074984 6.1979699 -5.0158939 3 0 0 0 2
7.2291698 6.1804552 -4.9999313 3 0 0 0 2
7.7871966 5.8436422 -4.9944925 3 0 0 0 2
7.4395342 5.7494812 -5.0141912 3 0 0 0 2
6.9471302 6.2443657 -5.0204067 3 0 0 0 2
7.5561428 6.1166134 -5.0308657 3 0 0 0 2
7.5103335 5.5668921 -5.0009775 3 0 0 0 2
7.2497921 6.2934108 -4.9961901 3 0 0 0 2
7.0743198 5.7786188 -5.0096488 3 0 0 0 2
7.1839228 5.9840055 -5.0087872 3 0 0 0 2
6.9320626 6.142715 -5.0391746 3 0 0 0 2
7.1088562 6.0172052 -5.0095344 3 0 0 0 2
7.5352435 6.2198243 -5.0119319 3 0 0 0 2
7.1712604 5.6090841 -5.0022001 3 0 0 0 2
7.4806805 6.446167 -5.0098314 3 0 0 0 2
7.3553991 6.4463477 -4.9970493 3 0 0 0 2
7.3179955 6.2966423 -5.019249 3 0 0 0 2
7.3808722 5.9686007 -5.0300078 3 0 0 0 2
7.5305958 6.4122658 -4.9927993 3 0 0 0 2
7.6615849 5.8481989 -5.0041475 3 0 0 0 2
7.5433764 5.6712937 -5.0329924 3 0 0 0 2
7.4285064 6.0920935 -5.0060115 3 0 0 0 2
7.2336888 5.9673958 -5.005362 3 0 0 0 2
7.4050188 5.7404141 -5.0060277 3 0 0 0 2
7.603601 5.5845804 -5.0089054 3 0 0 0 2
7.2347016 6.0613241 -5.0109377 3 0 0 0 2
7.0078177 6.3921628 -5.0147696 3 0 0 0 2
7.6653376 5.8808694 -4.9968171 3 0 0 0 2
7.1875772 6.2207789 -5.0129361 3 0 0 0 2
7.2990947 6.5113916 -4.9851799 3 0 0 0 2
6.9587607 6.1608362 -5.0070167 3 0 0 0 2
7.5679398 6.010149 -5.0055518 3 0 0 0 2
6.9648604 6.3371215 -5.0013304 3 0 0 0 2
7.5068216 5.8202982 -4.9973836 3 0 0 0 2
7.0576062 5.9025717 -5.0050282 3 0 0 0 2
7.7894287 5.7965264 -5.008996 3 0 0 0 2
7.5326447 5.8966575 -5.0040278 3 0 0 0 2
7.2655549 6.2780952 -5.0128684 3 0 0 0 2
7.3347425 6.2508807 -5.0081015 3 0 0 0 2
7.7006145 5.8815141 -5.0102105 3 0 0 0 2
7.0097294 5.7760949 -5.0186419 3 0 0 0 2
7.11304 6.3436756 -4.9942379 3 0 0 0 2
7.0720677 5.8524714 -5.0071778 3 0 0 0 2
6.8989396 6.3916001 -4.994401 3 0 0 0 2
7.8281765 5.6537399 -5.0125756 3 0 0 0 2
7.7104478 6.4552832 -5.0149865 3 0 0 0 2
7.7401972 5.5568471 -5.0257821 3 0 0 0 2
7.6769471 5.6081676 -5.0138073 3 0 0 0 2
7.5768027 5.6356215 -5.0153375 4 0 0 0 2
7.4659557 6.4477267 -5.0015678 4 0 0 0 2
6.9327354 5.9225268 -5.0108171 4 0 0 0 2
7.0279379 6.4078526 -5.0248203 4 0 0 0 2
7.6725168 5.6883616 -4.9863114 4 0 0 0 2
7.795732 6.0370927 -5.0039382 4 0 0 0 2
7.2066655 5.7262745 -5.0191846 4 0 0 0 2
7.0449204 5.9141088 -5.0111165 4 0 0 0 2
7.1704803 5.9667273 -5.0090203 4 0 0 0 2
6.996026 6.0164523 -5.0115814 4 0 0 0 2
7.7897992 5.9760294 -5.0101514 4 0 0 0 2
6.98278 6.3916101 -5.010612 4 0 0 0 2
7.0446248 5.8967075 -4.994091 4 0 0 0 2
6.9468613 5.5796227 -5.0109301 4 0 0 0 2
7.2661467 6.0935473 -5.015542 4 0 0 0 2
7.0816388 5.9500208 -5.0140982 4 0 0 0 2
7.3968339 6.2923946 -5.0110092 4 0 0 0 2
7.1777296 5.8917623 -5.0025477 4 0 0 0 2
7.1108537 5.5755887 -5.012012 4 0 0 0 2
7.4736042 6.1578131 -5.0087938 4 0 0 0 2
7.7741842 6.3289003 -5.0061221 4 0 0 0 2
7.0078683 5.8214273 -5.0080118 4 0 0 0 2
7.7094941 5.7622061 -5.0154433 4 0 0 0 2
6.9663424 6.0366054 -5.0104284 4 0 0 0 2
7.6955924 5.9100523 -5.0133586 4 0 0 0 2
7.5165429 5.6620717 -5.0125728 4 0 0 0 2
6.9903712 6.3951364 -4.9887304 4 0 0 0 2
6.99789 6.4674006 -4.9909468 4 0 0 0 2
7.3785625 5.9852324 -5.0059528 4 0 0 0 2
7.1338406 6.1092291 -5.0079408 4 0 0 0 2
7.5896101 5.6294928 -5.0146041 4 0 0 0 2
7.0244522 6.0554714 -5.004693 4 0 0 0 2
7.6832271 6.0307517 -5.0026879 4 0 0 0 2
7.7048106 6.0877476 -5.0094595 4 0 0 0 2
6.9003038 5.7047782 -5.0142093 4 0 0 0 2
7.1320944 6.3717313 -5.0005546 4 0 0 0 2
7.3265557 5.7951927 -4.9922762 4 0 0 0 2
7.4524455 5.5587115 -5.0229583 4 0 0 0 2
7.3582253 6.3342042 -5.015976 4 0 0 0 2
7.00208 5.6838694 -5.0163226 4 0 0 0 2
7.6012607 6.1375227 -5.0143523 4 0 0 0 2
7.7568464 6.3744588 -5.0162787 4 0 0 0 2
7.0968218 5.5062456 -5.0200267 4 0 0 0 2
7.6719327 5.586133 -5.0185905 4 0 0 0 2
7.4396095 5.7511177 -5.0109768 4 0 0 0 2
7.8264527 5.6353168 -5.0167418 4 0 0 0 2
7.733964 6.0870481 -5.0004067 4 0 0 0 2
7.8213353 6.3244362 -5.0184674 4 0 0 0 2
7.684473 6.283968 -4.9961786 4 0 0 0 2
7.0363069 6.1269069 -5.0131764 4 0 0 0 2
7.6614275 5.8898668 -5.0144644 5 0 0 0 2
7.3080482 5.6199522 -5.01232 5 0 0 0 2
7.2746949 5.5758886 -5.0055022 5 0 0 0 2
7.152112 5.9191065 -5.005856 5 0 0 0 2
6.9748988 6.2615395 -5.0110307 5 0 0 0 2
7.0927944 6.4288988 -5.0203876 5 0 0 0 2
7.0337834 6.3020124 -5.0155435 5 0 0 0 2
7.2955799 5.8815651 -5.0332432 5 0 0 0 2
7.3175259 6.3042121 -5.0089474 5 0 0 0 2
7.0507011 6.1630974 -4.9959426 5 0 0 0 2
7.3419075 6.0781636 -5.0118203 5 0 0 0 2
7.8642597 5.905602 -5.0102887 5 0 0 0 2
7.8409328 5.708797 -4.9927382 5 0 0 0 2
7.4712272 6.4703717 -4.9813657 5 0 0 0 2
7.3494558 6.1314998 -5.0114346 5 0 0 0 2
7.8170614 6.4322481 -4.9975843 5 0 0 0 2
7.2350335 5.681571 -5.0151243 5 0 0 0 2
7.8505168 5.6606917 -5.0064154 5 0 0 0 2
6.9591355 5.7499728 -5.0139122 5 0 0 0 2
7.2869825 5.7341323 -5.0022678 5 0 0 0 2
7.8535323 5.6897445 -5.0155368 5 0 0 0 2
7.5079255 5.6248541 -5.026207 5 0 0 0 2
7.5483565 6.3521667 -5.0168605 5 0 0 0 2
7.6216116 5.8141985 -5.0078926 5 0 0 0 2
6.9983821 5.8326697 -5.0110831 5 0 0 0 2
7.5699687 6.5243897 -5.004952 5 0 0 0 2
7.2965174 5.9845223 -4.996304 5 0 0 0 2
7.5603504 6.4879804 -5.0300961 5 0 0 0 2
7.5805135 5.6999173 -5.0219173 5 0 0 0 2
7.038908 6.1960764 -5.0099936 5 0 0 0 2
7.0689688 6.4729338 -5.0197115 5 0 0 0 2
7.5256162 6.1146207 -5.0049767 5 0 0 0 2
7.7384043 6.2629218 -5.0211372 5 0 0 0 2
7.6857839 5.9207726 -5.0164604 5 0 0 0 2
7.1962914 6.3344846 -4.9981484 5 0 0 0 2
7.6929455 6.4379067 -5.0064201 5 0 0 0 2
7.7631583 6.0313683 -4.9978838 5 0 0 0 2
7.6400399 5.5761724 -5.0016727 5 0 0 0 2
7.7826586 5.6784148 -5.0119319 5 0 0 0 2
7.6084061 5.5312824 -5.0183954 5 0 0 0 2
7.2095904 6.388339 -5.0026155 5 0 0 0 2
7.3072324 6.0556502 -4.9994688 5 0 0 0 2
7.467082 5.8354421 -4.9983978 5 0 0 0 2
7.0058627 5.6135449 -5.0054288 5 0 0 0 2
7.6123414 6.2271037 -5.0151925 5 0 0 0 2
6.9010267 6.1148353 -5.0040221 5 0 0 0 2
6.962235 5.9701834 -4.9959006 5 0 0 0 2
7.8734484 6.1867208 -5.0156693 5 0 0 0 2
7.4856277 6.3827438 -5.0149784 5 0 0 0 2
7.4550943 5.5937099 -5.0038528 5 0 0 0 2
